<svg width="224" height="55" viewBox="0 0 224 55" fill="none" xmlns="http://www.w3.org/2000/svg">
<g id="Logo blu bianco" clip-path="url(#clip0_430_199)">
<path id="Vector" d="M18.205 26.4287C16.7345 26.899 15.3334 27.1268 13.9322 27.1268C6.24821 27.1317 0 21.0716 0 13.6302C0 6.1888 6.24821 0.123776 13.9322 0.123776C16.6603 0.123776 19.3338 0.925845 21.6608 2.43591L22.0668 2.69832L19.4873 7.20377L19.0269 6.88195C17.5069 5.80757 15.7443 5.2382 13.9273 5.2382C9.14458 5.2382 5.24811 9.00099 5.24811 13.6302C5.24811 18.2594 9.13962 22.0074 13.9273 22.0074C15.3482 22.0074 16.7741 21.6509 18.0515 20.9776L18.2 20.8983V26.4287H18.205ZM113.438 20.7696L112.963 21.0221C111.686 21.6955 110.26 22.0519 108.844 22.0519C104.056 22.0519 100.165 18.2941 100.165 13.6748C100.165 9.05546 104.061 5.28276 108.844 5.28276C110.661 5.28276 112.423 5.85213 113.938 6.92651L114.399 7.25328L116.978 2.74783L116.572 2.48542C114.245 0.970404 111.572 0.173286 108.844 0.173286C105.13 0.173286 101.635 1.57938 99.001 4.12917C96.3621 6.68391 94.9065 10.0754 94.9065 13.6797C94.9065 17.2841 96.3621 20.6756 99.001 23.2253C101.635 25.7751 105.13 27.1763 108.844 27.1763C110.319 27.1763 111.79 26.9238 113.339 26.4039L113.438 26.3692V20.7696ZM123.964 26.1316L131.039 12.7192L131.069 12.7341C131.648 11.625 132.059 10.8329 132.242 10.4913C132.916 11.7884 135.555 16.8533 136.144 17.9871H131.341L128.579 23.2253H138.887C139.114 23.666 140.327 25.9979 140.397 26.1316H145.892L132.242 0.0445594L118.582 26.1366H123.969L123.964 26.1316ZM90.9407 21.1211H74.429V15.3383H87.5146V10.3378H74.429V5.04511H90.9407V0.0346573H69.2997V26.1266H90.9407V21.1211ZM27.4684 0.0346573V26.1167H32.9393V0.0346573H27.4684ZM63.2496 0H58.254V0.589174H58.2292V19.5616C56.6399 17.9871 38.7568 0.178238 38.7568 0.178238V26.1366H43.8464V12.4271C45.3813 13.9768 62.0118 30.8202 63.2446 32.0679V0H63.2496Z" fill="#0070C7"/>
<path id="Vector_2" d="M152.111 0.29223C152.111 0.155511 152.001 0.0446777 151.866 0.0446777C151.73 0.0446777 151.621 0.155511 151.621 0.29223V31.7462C151.621 31.8829 151.73 31.9938 151.866 31.9938C152.001 31.9938 152.111 31.8829 152.111 31.7462V0.29223Z" fill="white"/>
<path id="Vector_3" d="M160.775 29.0526V1.58422C160.775 1.38123 160.944 1.21289 161.147 1.21289H165.058C165.261 1.21289 165.429 1.38123 165.429 1.58422V12.4716C165.429 12.6746 165.598 12.8429 165.801 12.8429H175.832C176.035 12.8429 176.203 12.6746 176.203 12.4716V1.58422C176.203 1.38123 176.371 1.21289 176.574 1.21289H180.505C180.708 1.21289 180.877 1.38123 180.877 1.58422V29.0526C180.877 29.2556 180.708 29.4239 180.505 29.4239H176.574C176.371 29.4239 176.203 29.2556 176.203 29.0526V17.4969C176.203 17.2939 176.035 17.1255 175.832 17.1255H165.801C165.598 17.1255 165.429 17.2939 165.429 17.4969V29.0526C165.429 29.2556 165.261 29.4239 165.058 29.4239H161.147C160.944 29.4239 160.775 29.2556 160.775 29.0526Z" fill="white"/>
<path id="Vector_4" d="M185.55 29.0526V1.93578C185.55 1.75755 185.674 1.60406 185.847 1.56941C186.838 1.37136 187.872 1.20798 188.942 1.08916C190.125 0.955477 191.348 0.891113 192.62 0.891113C196.304 0.891113 199.077 1.69318 200.943 3.30227C202.805 4.91136 203.736 7.44134 203.736 10.8972C203.736 14.15 202.81 16.6206 200.963 18.3138C199.116 20.0021 196.363 20.8488 192.719 20.8488C192.249 20.8488 191.818 20.8389 191.432 20.8191C191.165 20.8042 190.893 20.7894 190.605 20.7646C190.388 20.7497 190.199 20.9181 190.199 21.131V29.0526C190.199 29.2556 190.031 29.424 189.828 29.424H185.917C185.714 29.424 185.545 29.2556 185.545 29.0526H185.55ZM192.794 16.9969C194.952 16.9969 196.557 16.5216 197.596 15.566C198.636 14.6105 199.161 13.0806 199.161 10.9714C199.161 8.86229 198.661 7.18389 197.656 6.19863C196.651 5.21337 195.101 4.72322 193.007 4.72322C192.472 4.72322 191.982 4.73807 191.541 4.77273C191.199 4.79749 190.853 4.83709 190.511 4.89651C190.333 4.92621 190.204 5.08465 190.204 5.26288V16.5315C190.204 16.7196 190.348 16.883 190.536 16.9028C190.843 16.9325 191.155 16.9572 191.462 16.9721C191.883 16.9919 192.328 17.0018 192.799 17.0018L192.794 16.9969Z" fill="white"/>
<path id="Vector_5" d="M218.489 29.7855C216.608 29.7855 214.92 29.528 213.429 29.0131C211.934 28.4982 210.667 27.6763 209.617 26.5425C208.567 25.4137 207.77 23.9284 207.226 22.0915C206.681 20.2547 206.404 18.0168 206.404 15.373C206.404 11.9419 206.899 9.15941 207.889 7.02551C208.879 4.89161 210.3 3.32708 212.152 2.33688C214.004 1.34667 216.237 0.851562 218.851 0.851562C219.717 0.851562 220.589 0.906024 221.47 1.01495C222.252 1.10902 223 1.24765 223.718 1.43083C223.881 1.47044 223.995 1.62393 223.995 1.79226V5.02529C223.995 5.26789 223.767 5.44118 223.529 5.38177C222.866 5.21343 222.212 5.08965 221.574 5.01044C220.787 4.90647 219.98 4.85696 219.153 4.85696C217.44 4.85696 215.994 5.17877 214.826 5.81746C213.657 6.46109 212.771 7.54042 212.177 9.06534C211.578 10.5903 211.281 12.6697 211.281 15.2987C211.281 17.9277 211.578 20.121 212.177 21.6459C212.776 23.1709 213.652 24.2403 214.806 24.8592C215.964 25.478 217.385 25.785 219.074 25.785C219.836 25.785 220.618 25.7058 221.425 25.5474C222.084 25.4186 222.777 25.2404 223.505 25.0126C223.742 24.9384 223.99 25.1117 223.99 25.3642V28.5972C223.99 28.7556 223.896 28.8943 223.747 28.9487C223.079 29.1864 222.311 29.3844 221.445 29.5379C220.475 29.7112 219.484 29.7954 218.479 29.7954L218.489 29.7855Z" fill="white"/>
<path id="Vector_6" d="M2.10938 50.1045V36.1821H3.95116V42.1184H9.76369V36.1821H11.5956V50.1045H9.76369V43.8216H3.95116V50.1045H2.10938Z" fill="white"/>
<path id="Vector_7" d="M14.947 37.8656C14.546 37.8656 14.244 37.7666 14.036 37.5636C13.8281 37.3606 13.7241 37.0883 13.7241 36.7467C13.7241 36.405 13.8281 36.108 14.036 35.9099C14.244 35.7119 14.546 35.6079 14.947 35.6079C15.3481 35.6079 15.6501 35.7069 15.858 35.9099C16.066 36.1129 16.1699 36.3902 16.1699 36.7467C16.1699 37.1031 16.066 37.3655 15.858 37.5636C15.6501 37.7666 15.3481 37.8656 14.947 37.8656ZM14.036 50.1046V39.8708H15.863V50.1046H14.036Z" fill="white"/>
<path id="Vector_8" d="M20.8836 54.4317C20.4825 54.4317 20.0518 54.402 19.5864 54.3376C19.121 54.2732 18.7002 54.1792 18.3189 54.0554V52.5404C18.7447 52.679 19.1606 52.778 19.5666 52.8424C19.9726 52.9068 20.3687 52.9365 20.7548 52.9365C21.6312 52.9365 22.2946 52.7285 22.7402 52.3176C23.1858 51.9017 23.4086 51.1739 23.4086 50.1243V49.0895H23.3046C23.0917 49.4163 22.7947 49.6886 22.4134 49.9114C22.0322 50.1342 21.5767 50.2431 21.047 50.2431C20.4677 50.2431 19.9231 50.0847 19.4082 49.7628C18.8932 49.441 18.4774 48.9162 18.1555 48.1785C17.8337 47.4408 17.6753 46.4407 17.6753 45.1831C17.6753 43.3314 18.0763 41.96 18.8734 41.0589C19.6755 40.1578 20.8588 39.7073 22.4332 39.7073C22.7402 39.7073 23.062 39.7271 23.3937 39.7617C23.7255 39.8013 24.0522 39.8509 24.3691 39.9152C24.686 39.9796 24.9682 40.0588 25.2207 40.1529V49.8322C25.2207 51.4809 24.8543 52.6592 24.1265 53.3623C23.3987 54.0653 22.3144 54.4218 20.8836 54.4218V54.4317ZM21.7005 48.6934C22.0273 48.6934 22.3441 48.6142 22.661 48.4558C22.9729 48.2973 23.2205 48.0646 23.4036 47.7527V41.3015C23.2601 41.2619 23.0868 41.2322 22.8838 41.2074C22.6808 41.1827 22.4877 41.1678 22.3045 41.1678C21.4282 41.1678 20.7499 41.45 20.2696 42.0194C19.7894 42.5888 19.5517 43.5839 19.5517 45.0148C19.5517 46.01 19.6409 46.7774 19.824 47.3071C20.0072 47.8369 20.2597 48.1983 20.5865 48.3964C20.9133 48.5944 21.2846 48.6934 21.7054 48.6934H21.7005Z" fill="white"/>
<path id="Vector_9" d="M27.498 50.1045V34.9048H29.3151V40.9896H29.419C29.7409 40.5688 30.1171 40.2519 30.5528 40.0341C30.9885 39.8162 31.4737 39.7073 32.0134 39.7073C32.5135 39.7073 32.9739 39.8113 33.3799 40.0242C33.7859 40.2371 34.1176 40.5836 34.3602 41.0787C34.6028 41.5689 34.7216 42.2422 34.7216 43.0889V50.1045H32.9046V43.1978C32.9046 42.4947 32.761 42.0145 32.4837 41.7521C32.2015 41.4897 31.8302 41.3609 31.3747 41.3609C31.1569 41.3609 30.9192 41.4006 30.6667 41.4748C30.4142 41.5491 30.1667 41.6729 29.929 41.8412C29.6914 42.0095 29.4884 42.2373 29.32 42.5294V50.0995H27.503L27.498 50.1045Z" fill="white"/>
<path id="Vector_10" d="M43.772 50.1046V36.3605C44.272 36.2614 44.7968 36.1822 45.3415 36.1228C45.8861 36.0634 46.4554 36.0337 47.0446 36.0337C48.8022 36.0337 50.1242 36.4248 51.0104 37.2071C51.8966 37.9894 52.3422 39.2123 52.3422 40.8808C52.3422 42.4552 51.8966 43.6533 51.0005 44.4703C50.1044 45.2872 48.7577 45.6981 46.9604 45.6981C46.7178 45.6981 46.4901 45.6981 46.2772 45.6833C46.0643 45.6684 45.8465 45.6585 45.6138 45.6387V50.1046H43.772ZM47.0199 44.1484C48.2131 44.1484 49.0943 43.891 49.6637 43.3711C50.2331 42.8562 50.5202 42.0344 50.5202 40.9105C50.5202 39.7866 50.2479 38.8855 49.7083 38.3557C49.1637 37.826 48.322 37.5586 47.1832 37.5586C46.8961 37.5586 46.6238 37.5685 46.3762 37.5883C46.1237 37.6081 45.8762 37.6378 45.6237 37.6824V44.0692C45.8514 44.0989 46.0792 44.1187 46.3069 44.1286C46.5347 44.1385 46.7773 44.1435 47.0248 44.1435L47.0199 44.1484Z" fill="white"/>
<path id="Vector_11" d="M58.0608 50.2928C57.0557 50.2928 56.2239 50.1145 55.5704 49.763C54.9119 49.4065 54.4218 48.8421 54.0999 48.0648C53.7781 47.2875 53.6147 46.2577 53.6147 44.9704C53.6147 43.6831 53.7682 42.7474 54.0801 41.9701C54.3921 41.1928 54.8278 40.6234 55.3971 40.257C55.9665 39.8956 56.6349 39.7124 57.4072 39.7124C58.1796 39.7124 58.7935 39.8956 59.3233 40.257C59.8531 40.6184 60.259 41.1928 60.5363 41.975C60.8136 42.7573 60.9571 43.7673 60.9571 45.01V45.5942H54.9268V44.3713H59.5164L59.2243 44.5694C59.2243 43.6287 59.15 42.9009 58.9965 42.386C58.848 41.8711 58.6351 41.5146 58.3628 41.3116C58.0905 41.1086 57.7687 41.0096 57.3973 41.0096C57.026 41.0096 56.6893 41.1086 56.4022 41.3116C56.115 41.5146 55.8873 41.8711 55.7189 42.386C55.5506 42.9009 55.4714 43.6287 55.4714 44.5694V45.312C55.4714 46.1983 55.5704 46.8914 55.7635 47.3964C55.9566 47.9014 56.2636 48.2579 56.6745 48.4708C57.0854 48.6837 57.6251 48.7877 58.2836 48.7877C58.6153 48.7877 58.9619 48.758 59.3183 48.6936C59.6748 48.6292 60.066 48.5401 60.4868 48.4213V49.9363C60.0412 50.07 59.6253 50.1641 59.2391 50.2185C58.8529 50.273 58.4618 50.3027 58.0657 50.3027L58.0608 50.2928Z" fill="white"/>
<path id="Vector_12" d="M62.6602 50.1045V39.8707H64.1752L64.3188 41.2719H64.4227C64.7099 40.747 65.0763 40.3609 65.5169 40.1183C65.9576 39.8757 66.4378 39.7568 66.9527 39.7568C67.0765 39.7568 67.1953 39.7568 67.2993 39.7717C67.4033 39.7865 67.4973 39.7964 67.5716 39.8162V41.5293C67.4528 41.5046 67.3339 41.4897 67.2151 41.4847C67.0963 41.4847 66.9725 41.4847 66.8487 41.4847C66.5418 41.4847 66.2348 41.5343 65.9328 41.6382C65.6308 41.7422 65.3486 41.8957 65.101 42.0987C64.8485 42.3017 64.6455 42.5443 64.4821 42.8265V50.1095H62.6651L62.6602 50.1045Z" fill="white"/>
<path id="Vector_13" d="M68.0225 41.3461V39.8707H74.0429V41.3461H68.0225ZM69.6761 50.1045V38.1675C69.6761 37.4199 69.8048 36.7911 70.0672 36.2811C70.3296 35.7712 70.7158 35.3801 71.2307 35.1127C71.7456 34.8453 72.3893 34.7117 73.1666 34.7117C73.3547 34.7117 73.5577 34.7216 73.7756 34.7364C73.9934 34.7513 74.1964 34.781 74.3895 34.8156V36.3307C74.2162 36.301 74.0479 36.2762 73.8845 36.2613C73.7261 36.2465 73.5528 36.2366 73.3696 36.2366C72.726 36.2366 72.2457 36.3802 71.9338 36.6673C71.6219 36.9545 71.4684 37.4248 71.4684 38.0784V50.0995H69.6712L69.6761 50.1045Z" fill="white"/>
<path id="Vector_14" d="M78.4542 50.2926C77.6471 50.2926 76.9441 50.1144 76.3549 49.7529C75.7657 49.3915 75.3102 48.8271 74.9934 48.0498C74.6765 47.2725 74.5181 46.2625 74.5181 45.0148C74.5181 43.7671 74.6765 42.7373 74.9934 41.955C75.3102 41.1777 75.7608 40.6084 76.35 40.2469C76.9391 39.8855 77.6372 39.7073 78.4542 39.7073C79.2711 39.7073 79.9593 39.8905 80.5484 40.2519C81.1327 40.6133 81.5882 41.1876 81.905 41.965C82.2219 42.7423 82.3803 43.7572 82.3803 45.0049C82.3803 46.2526 82.2219 47.2725 81.91 48.0498C81.5981 48.8221 81.1475 49.3915 80.5583 49.7529C79.9741 50.1144 79.2711 50.2926 78.4542 50.2926ZM78.4542 48.8618C78.8799 48.8618 79.2463 48.7528 79.5533 48.535C79.8602 48.3171 80.0979 47.9359 80.2613 47.3814C80.4296 46.8318 80.5088 46.0496 80.5088 45.0395C80.5088 44.0295 80.4247 43.1978 80.2563 42.6383C80.088 42.0788 79.8503 41.6877 79.5434 41.4649C79.2364 41.2421 78.87 41.1332 78.4542 41.1332C78.0383 41.1332 77.6669 41.2421 77.36 41.4599C77.053 41.6778 76.8104 42.064 76.647 42.6185C76.4787 43.173 76.3995 43.9602 76.3995 44.9752C76.3995 45.9901 76.4836 46.8071 76.647 47.3715C76.8154 47.931 77.0481 48.3221 77.355 48.5399C77.662 48.7578 78.0284 48.8667 78.4542 48.8667V48.8618Z" fill="white"/>
<path id="Vector_15" d="M84.1924 50.1045V39.8707H85.7074L85.851 41.2719H85.955C86.2421 40.747 86.6085 40.3609 87.0491 40.1183C87.4898 39.8757 87.97 39.7568 88.4849 39.7568C88.6087 39.7568 88.7275 39.7568 88.8315 39.7717C88.9355 39.7865 89.0296 39.7964 89.1038 39.8162V41.5293C88.985 41.5046 88.8662 41.4897 88.7473 41.4847C88.6285 41.4847 88.5047 41.4847 88.381 41.4847C88.074 41.4847 87.767 41.5343 87.465 41.6382C87.163 41.7422 86.8808 41.8957 86.6332 42.0987C86.3807 42.3017 86.1777 42.5443 86.0144 42.8265V50.1095H84.1973L84.1924 50.1045Z" fill="white"/>
<path id="Vector_16" d="M90.3614 50.1045V39.8707H91.8863L92.0299 41.0094H92.1339C92.4854 40.5638 92.8815 40.237 93.3172 40.0241C93.7578 39.8162 94.2331 39.7073 94.748 39.7073C95.2332 39.7073 95.6689 39.8112 96.065 40.0192C96.4611 40.2271 96.773 40.5688 97.0057 41.049C97.2384 41.5293 97.3523 42.1877 97.3523 43.0195V50.1045H95.555V43.1928C95.555 42.4898 95.4214 42.0095 95.154 41.7471C94.8867 41.4847 94.545 41.356 94.1242 41.356C93.9212 41.356 93.7034 41.3956 93.4608 41.4748C93.2181 41.554 92.9855 41.6827 92.7577 41.856C92.53 42.0293 92.3369 42.2719 92.1735 42.569V50.1045H90.3564H90.3614ZM100.689 50.1045V43.1928C100.689 42.4898 100.551 42.0095 100.268 41.7471C99.9862 41.4847 99.6396 41.356 99.2188 41.356C99.0158 41.356 98.793 41.3956 98.5405 41.4797C98.288 41.559 98.0454 41.6976 97.8078 41.8956C97.5701 42.0887 97.3671 42.361 97.1988 42.7027L96.8126 41.4154C97.2087 40.8015 97.6691 40.3658 98.1939 40.1034C98.7188 39.841 99.2436 39.7122 99.7634 39.7122C100.283 39.7122 100.734 39.8162 101.15 40.0291C101.566 40.242 101.897 40.5935 102.14 41.0886C102.383 41.5837 102.506 42.2571 102.506 43.1086V50.1094H100.679L100.689 50.1045Z" fill="white"/>
<path id="Vector_17" d="M106.967 50.2728C106.146 50.2728 105.477 50.0252 104.962 49.5301C104.447 49.035 104.19 48.3419 104.19 47.4507C104.19 46.5595 104.467 45.7971 105.022 45.2772C105.576 44.7573 106.458 44.4454 107.671 44.3365L109.73 44.1187L109.983 45.297L107.839 45.5049C107.21 45.5594 106.75 45.7376 106.448 46.0298C106.146 46.3268 105.997 46.7279 105.997 47.2428C105.997 47.7874 106.131 48.1934 106.403 48.4558C106.67 48.7182 107.047 48.8519 107.532 48.8519C107.839 48.8519 108.161 48.7776 108.492 48.6241C108.824 48.4756 109.126 48.1934 109.393 47.7874V43.3265C109.393 42.7868 109.314 42.366 109.156 42.059C108.997 41.7521 108.76 41.5342 108.438 41.4104C108.116 41.2867 107.7 41.2223 107.2 41.2223C106.864 41.2223 106.482 41.252 106.061 41.3164C105.641 41.3807 105.225 41.4797 104.809 41.6184V40.1034C105.2 39.9796 105.636 39.8806 106.126 39.8113C106.616 39.7419 107.071 39.7073 107.497 39.7073C108.319 39.7073 109.002 39.8212 109.542 40.0539C110.087 40.2865 110.488 40.6727 110.755 41.2124C111.022 41.7521 111.156 42.4848 111.156 43.4156V50.1045H109.661L109.522 48.9954H109.418C109.151 49.441 108.804 49.7678 108.379 49.9708C107.958 50.1738 107.482 50.2778 106.963 50.2778L106.967 50.2728Z" fill="white"/>
<path id="Vector_18" d="M113.364 50.1046V39.8708H114.889L115.033 40.9898H115.137C115.468 40.5838 115.86 40.2669 116.315 40.0441C116.771 39.8213 117.266 39.7124 117.81 39.7124C118.355 39.7124 118.81 39.8164 119.231 40.0293C119.652 40.2372 119.984 40.5887 120.226 41.0789C120.469 41.569 120.593 42.2275 120.593 43.0643V50.1096H118.776V43.188C118.776 42.4899 118.632 42.0146 118.355 41.7522C118.078 41.4898 117.701 41.3611 117.246 41.3611C117.018 41.3611 116.78 41.4007 116.528 41.475C116.275 41.5492 116.028 41.673 115.795 41.8463C115.563 42.0196 115.36 42.2473 115.186 42.5394V50.1096H113.369L113.364 50.1046Z" fill="white"/>
<path id="Vector_19" d="M126.45 50.2927C125.564 50.2927 124.816 50.1145 124.207 49.758C123.598 49.4015 123.128 48.8371 122.811 48.0598C122.494 47.2825 122.331 46.2626 122.331 45C122.331 43.7375 122.509 42.683 122.865 41.9106C123.222 41.1382 123.737 40.5788 124.41 40.2322C125.083 39.8856 125.895 39.7173 126.846 39.7173C127.128 39.7173 127.415 39.7321 127.712 39.7668C128.009 39.7965 128.297 39.846 128.579 39.9153V41.4601C128.321 41.3907 128.064 41.3462 127.811 41.3165C127.559 41.2917 127.336 41.2769 127.148 41.2769C126.484 41.2769 125.935 41.3858 125.504 41.6086C125.073 41.8314 124.757 42.2126 124.544 42.7473C124.336 43.282 124.227 44.0197 124.227 44.9555C124.227 45.8912 124.326 46.6784 124.519 47.228C124.712 47.7776 125.004 48.1638 125.385 48.3965C125.767 48.6292 126.247 48.7381 126.816 48.7381C127.074 48.7381 127.346 48.7084 127.633 48.649C127.92 48.5896 128.237 48.5054 128.574 48.3915V49.9362C128.217 50.06 127.861 50.1541 127.499 50.2135C127.143 50.2729 126.791 50.3026 126.445 50.3026L126.45 50.2927Z" fill="white"/>
<path id="Vector_20" d="M133.871 50.2928C132.866 50.2928 132.034 50.1145 131.381 49.763C130.722 49.4065 130.232 48.8421 129.911 48.0648C129.589 47.2875 129.425 46.2577 129.425 44.9704C129.425 43.6831 129.579 42.7474 129.891 41.9701C130.203 41.1928 130.638 40.6234 131.208 40.257C131.777 39.8956 132.445 39.7124 133.218 39.7124C133.99 39.7124 134.604 39.8956 135.134 40.257C135.664 40.6184 136.07 41.1928 136.347 41.975C136.624 42.7573 136.768 43.7673 136.768 45.01V45.5942H130.737V44.3713H135.327L135.035 44.5694C135.035 43.6287 134.961 42.9009 134.807 42.386C134.659 41.8711 134.446 41.5146 134.173 41.3116C133.901 41.1086 133.579 41.0096 133.208 41.0096C132.837 41.0096 132.5 41.1086 132.213 41.3116C131.926 41.5146 131.698 41.8711 131.529 42.386C131.361 42.9009 131.282 43.6287 131.282 44.5694V45.312C131.282 46.1983 131.381 46.8914 131.574 47.3964C131.767 47.9014 132.074 48.2579 132.485 48.4708C132.896 48.6837 133.436 48.7877 134.094 48.7877C134.426 48.7877 134.772 48.758 135.129 48.6936C135.485 48.6292 135.877 48.5401 136.297 48.4213V49.9363C135.852 50.07 135.436 50.1641 135.05 50.2185C134.663 50.273 134.272 50.3027 133.876 50.3027L133.871 50.2928Z" fill="white"/>
<path id="Vector_21" d="M150.531 50.2828C149.64 50.2828 148.843 50.159 148.14 49.9065C147.437 49.654 146.838 49.253 146.343 48.6984C145.848 48.1439 145.471 47.4112 145.209 46.5051C144.947 45.5991 144.818 44.4851 144.818 43.1681C144.818 41.4501 145.051 40.0638 145.516 39.0142C145.981 37.9646 146.65 37.1972 147.526 36.7169C148.402 36.2367 149.457 35.999 150.69 35.999C151.111 35.999 151.536 36.0287 151.967 36.0832C152.398 36.1377 152.814 36.2268 153.21 36.3357V37.9448C152.789 37.8111 152.383 37.722 151.987 37.6725C151.591 37.623 151.185 37.5982 150.774 37.5982C149.903 37.5982 149.165 37.7665 148.566 38.1082C147.967 38.4498 147.516 39.0192 147.204 39.8262C146.897 40.6332 146.744 41.7323 146.744 43.1335C146.744 44.5346 146.897 45.6932 147.204 46.4952C147.511 47.3023 147.962 47.8667 148.556 48.1934C149.15 48.5202 149.873 48.6836 150.724 48.6836C151.125 48.6836 151.527 48.644 151.928 48.5648C152.329 48.4856 152.754 48.3667 153.205 48.2132V49.8223C152.848 49.956 152.438 50.0649 151.967 50.1541C151.502 50.2432 151.017 50.2877 150.521 50.2877L150.531 50.2828Z" fill="white"/>
<path id="Vector_22" d="M157.745 50.2926C156.938 50.2926 156.235 50.1144 155.646 49.7529C155.057 49.3915 154.601 48.8271 154.284 48.0498C153.968 47.2725 153.809 46.2625 153.809 45.0148C153.809 43.7671 153.968 42.7373 154.284 41.955C154.601 41.1777 155.052 40.6084 155.641 40.2469C156.23 39.8855 156.928 39.7073 157.745 39.7073C158.562 39.7073 159.25 39.8905 159.839 40.2519C160.424 40.6133 160.879 41.1876 161.196 41.965C161.513 42.7423 161.671 43.7572 161.671 45.0049C161.671 46.2526 161.513 47.2725 161.201 48.0498C160.889 48.8221 160.439 49.3915 159.849 49.7529C159.265 50.1144 158.562 50.2926 157.745 50.2926ZM157.745 48.8618C158.171 48.8618 158.537 48.7528 158.844 48.535C159.151 48.3171 159.389 47.9359 159.552 47.3814C159.721 46.8318 159.8 46.0496 159.8 45.0395C159.8 44.0295 159.716 43.1978 159.547 42.6383C159.379 42.0788 159.141 41.6877 158.834 41.4649C158.527 41.2421 158.161 41.1332 157.745 41.1332C157.329 41.1332 156.958 41.2421 156.651 41.4599C156.344 41.6778 156.101 42.064 155.938 42.6185C155.77 43.173 155.69 43.9602 155.69 44.9752C155.69 45.9901 155.775 46.8071 155.938 47.3715C156.106 47.931 156.339 48.3221 156.646 48.5399C156.953 48.7578 157.319 48.8667 157.745 48.8667V48.8618Z" fill="white"/>
<path id="Vector_23" d="M163.483 50.1045V39.8707H165.008L165.152 41.0094H165.256C165.607 40.5638 166.004 40.237 166.439 40.0241C166.88 39.8162 167.355 39.7073 167.87 39.7073C168.355 39.7073 168.791 39.8112 169.187 40.0192C169.583 40.2271 169.895 40.5688 170.128 41.049C170.36 41.5293 170.474 42.1877 170.474 43.0195V50.1045H168.677V43.1928C168.677 42.4898 168.543 42.0095 168.276 41.7471C168.009 41.4847 167.667 41.356 167.246 41.356C167.043 41.356 166.825 41.3956 166.583 41.4748C166.34 41.554 166.108 41.6827 165.88 41.856C165.652 42.0293 165.459 42.2719 165.296 42.569V50.1045H163.479H163.483ZM173.811 50.1045V43.1928C173.811 42.4898 173.673 42.0095 173.39 41.7471C173.108 41.4847 172.762 41.356 172.341 41.356C172.138 41.356 171.915 41.3956 171.663 41.4797C171.41 41.559 171.167 41.6976 170.93 41.8956C170.692 42.0887 170.489 42.361 170.321 42.7027L169.935 41.4154C170.331 40.8015 170.791 40.3658 171.316 40.1034C171.841 39.841 172.366 39.7122 172.885 39.7122C173.405 39.7122 173.856 39.8162 174.272 40.0291C174.688 40.242 175.019 40.5935 175.262 41.0886C175.505 41.5837 175.628 42.2571 175.628 43.1086V50.1094H173.801L173.811 50.1045Z" fill="white"/>
<path id="Vector_24" d="M177.836 54.2437V39.8708H179.386L179.52 40.9452H179.624C179.832 40.5937 180.129 40.3016 180.52 40.0639C180.911 39.8312 181.367 39.7124 181.891 39.7124C182.51 39.7124 183.085 39.8758 183.614 40.2026C184.144 40.5293 184.565 41.064 184.892 41.8067C185.218 42.5494 185.382 43.5495 185.382 44.812C185.382 46.0745 185.204 47.0697 184.852 47.8767C184.496 48.6837 183.966 49.2877 183.258 49.6888C182.55 50.0848 181.664 50.2878 180.594 50.2878C180.451 50.2878 180.297 50.2829 180.129 50.268C179.96 50.2532 179.802 50.2433 179.653 50.2284V54.2437H177.836ZM180.723 48.8273C181.619 48.8273 182.307 48.5451 182.787 47.9757C183.268 47.4063 183.505 46.4112 183.505 44.9803C183.505 43.9703 183.411 43.2029 183.228 42.6731C183.045 42.1434 182.787 41.777 182.466 41.5839C182.144 41.3859 181.782 41.2868 181.381 41.2868C181.055 41.2868 180.733 41.371 180.411 41.5344C180.089 41.7027 179.837 41.9453 179.649 42.2721V48.7332C179.792 48.758 179.97 48.7778 180.173 48.7976C180.376 48.8174 180.564 48.8273 180.718 48.8273H180.723Z" fill="white"/>
<path id="Vector_25" d="M189.887 50.2827C189.367 50.2827 188.897 50.1787 188.481 49.9658C188.065 49.753 187.733 49.4064 187.491 48.9162C187.248 48.4261 187.125 47.7577 187.125 46.9111V39.8657H188.951V46.8071C188.951 47.4953 189.09 47.9755 189.372 48.2379C189.65 48.5003 190.006 48.634 190.442 48.634C190.65 48.634 190.877 48.5944 191.13 48.5201C191.382 48.4459 191.625 48.3221 191.858 48.1538C192.09 47.9854 192.293 47.7577 192.457 47.4656V39.8657H194.274V50.0995H192.749L192.61 49.0004H192.506C192.155 49.4311 191.759 49.753 191.313 49.9658C190.867 50.1738 190.397 50.2827 189.902 50.2827H189.887Z" fill="white"/>
<path id="Vector_26" d="M195.502 41.3461V39.8707H201.542V41.3461H195.502ZM200.235 50.2828C199.27 50.2828 198.517 50.0253 197.973 49.5055C197.428 48.9856 197.161 48.134 197.161 46.9408V39.8658L197.482 36.1772H198.987V46.7032C198.987 47.4508 199.121 47.9657 199.384 48.2528C199.646 48.54 200.072 48.6836 200.651 48.6836C200.8 48.6836 200.963 48.6737 201.131 48.6489C201.3 48.6291 201.478 48.5994 201.656 48.5598V50.1045C201.453 50.1491 201.23 50.1887 200.973 50.2234C200.72 50.258 200.473 50.2729 200.235 50.2729V50.2828Z" fill="white"/>
<path id="Vector_27" d="M203.914 37.8656C203.513 37.8656 203.211 37.7666 203.003 37.5636C202.795 37.3606 202.691 37.0883 202.691 36.7467C202.691 36.405 202.795 36.108 203.003 35.9099C203.211 35.7119 203.513 35.6079 203.914 35.6079C204.315 35.6079 204.617 35.7069 204.825 35.9099C205.033 36.1129 205.137 36.3902 205.137 36.7467C205.137 37.1031 205.033 37.3655 204.825 37.5636C204.617 37.7666 204.315 37.8656 203.914 37.8656ZM203.003 50.1046V39.8708H204.83V50.1046H203.003Z" fill="white"/>
<path id="Vector_28" d="M207.102 50.1046V39.8708H208.627L208.771 40.9898H208.875C209.206 40.5838 209.597 40.2669 210.053 40.0441C210.503 39.8213 211.003 39.7124 211.548 39.7124C212.093 39.7124 212.548 39.8164 212.969 40.0293C213.39 40.2422 213.722 40.5887 213.964 41.0789C214.207 41.569 214.331 42.2275 214.331 43.0643V50.1096H212.514V43.188C212.514 42.4899 212.37 42.0146 212.088 41.7522C211.806 41.4898 211.434 41.3611 210.979 41.3611C210.751 41.3611 210.513 41.4007 210.261 41.475C210.008 41.5492 209.761 41.673 209.528 41.8463C209.29 42.0196 209.092 42.2473 208.919 42.5394V50.1096H207.102V50.1046Z" fill="white"/>
<path id="Vector_29" d="M219.277 54.4317C218.876 54.4317 218.445 54.402 217.979 54.3376C217.514 54.2732 217.093 54.1792 216.707 54.0554V52.5404C217.133 52.679 217.549 52.778 217.955 52.8424C218.361 52.9068 218.757 52.9365 219.143 52.9365C220.019 52.9365 220.683 52.7285 221.128 52.3176C221.574 51.9066 221.797 51.1739 221.797 50.1243V49.0895H221.693C221.48 49.4163 221.183 49.6886 220.802 49.9114C220.42 50.1342 219.965 50.2431 219.44 50.2431C218.861 50.2431 218.316 50.0847 217.801 49.7628C217.286 49.441 216.87 48.9162 216.549 48.1785C216.227 47.4408 216.068 46.4407 216.068 45.1831C216.068 43.3314 216.469 41.96 217.267 41.0589C218.069 40.1578 219.252 39.7073 220.826 39.7073C221.133 39.7073 221.455 39.7271 221.787 39.7617C222.119 39.8013 222.445 39.8509 222.762 39.9152C223.079 39.9796 223.361 40.0588 223.614 40.1529V49.8322C223.614 51.4809 223.247 52.6592 222.52 53.3623C221.787 54.0653 220.707 54.4218 219.277 54.4218V54.4317ZM220.094 48.6934C220.42 48.6934 220.737 48.6142 221.054 48.4558C221.366 48.2973 221.614 48.0646 221.797 47.7527V41.3015C221.653 41.2619 221.48 41.2322 221.277 41.2074C221.074 41.1827 220.881 41.1678 220.698 41.1678C219.821 41.1678 219.143 41.45 218.663 42.0194C218.182 42.5888 217.945 43.5839 217.945 45.0148C217.945 46.01 218.034 46.7774 218.217 47.3071C218.4 47.8369 218.653 48.1983 218.98 48.3964C219.306 48.5944 219.678 48.6934 220.098 48.6934H220.094Z" fill="white"/>
</g>
<defs>
<clipPath id="clip0_430_199">
<rect width="224" height="54.4318" fill="white"/>
</clipPath>
</defs>
</svg>
