<?xml version="1.0" encoding="UTF-8"?>
<svg width="317px" height="42px" viewBox="0 0 317 42" version="1.1" xmlns="http://www.w3.org/2000/svg" xmlns:xlink="http://www.w3.org/1999/xlink">
    <title>logo-desktop-esteso</title>
    <defs>
        <polygon id="path-1" points="0 0 27.3819823 0 27.3819823 25.3975873 0 25.3975873"></polygon>
    </defs>
    <g id="logo-desktop-esteso" stroke="none" stroke-width="1" fill="none" fill-rule="evenodd">
        <g id="Group" transform="translate(-0.000000, 0.000000)">
            <rect id="Rectangle" fill-opacity="0" fill="#FFFFFF" x="0" y="0" width="289" height="42"></rect>
            <path d="M65.9427726,22.0307276 L65.9427726,21.5107276 C65.3534392,21.4760609 64.9071059,21.4067276 64.6037726,21.3027276 C64.3004392,21.1987276 64.0967726,20.9907276 63.9927726,20.6787276 C63.8887726,20.3667276 63.8367726,19.8987276 63.8367726,19.2747276 L63.8367726,19.2747276 L63.8367726,6.37872756 C63.8367726,5.73739422 63.8887726,5.26506089 63.9927726,4.96172756 C64.0967726,4.65839422 64.3004392,4.45039422 64.6037726,4.33772756 C64.9071059,4.22506089 65.3534392,4.16006089 65.9427726,4.14272756 L65.9427726,4.14272756 L65.9427726,3.62272756 C65.5441059,3.64006089 65.0457726,3.65739422 64.4477726,3.67472756 C63.8497726,3.69206089 63.2474392,3.70072756 62.6407726,3.70072756 C61.9647726,3.70072756 61.3321059,3.69206089 60.7427726,3.67472756 C60.1534392,3.65739422 59.6767726,3.64006089 59.3127726,3.62272756 L59.3127726,3.62272756 L59.3127726,4.14272756 C59.9021059,4.16006089 60.3484392,4.22506089 60.6517726,4.33772756 C60.9551059,4.45039422 61.1587726,4.65839422 61.2627726,4.96172756 C61.3667726,5.26506089 61.4187726,5.73739422 61.4187726,6.37872756 L61.4187726,6.37872756 L61.4187726,19.2747276 C61.4187726,19.8987276 61.3667726,20.3667276 61.2627726,20.6787276 C61.1587726,20.9907276 60.9551059,21.1987276 60.6517726,21.3027276 C60.3484392,21.4067276 59.9021059,21.4760609 59.3127726,21.5107276 L59.3127726,21.5107276 L59.3127726,22.0307276 C59.6767726,21.9960609 60.1534392,21.9743942 60.7427726,21.9657276 C61.3321059,21.9570609 61.9647726,21.9527276 62.6407726,21.9527276 C63.2474392,21.9527276 63.8497726,21.9570609 64.4477726,21.9657276 C65.0457726,21.9743942 65.5441059,21.9960609 65.9427726,22.0307276 L65.9427726,22.0307276 Z M72.8221048,22.3947276 C73.8794382,22.3947276 74.6637715,22.0480609 75.1751048,21.3547276 C75.6864382,20.6613942 76.0287715,19.8120609 76.2021048,18.8067276 L76.2021048,18.8067276 L75.6821048,18.6767276 C75.4047715,19.6820609 75.0754382,20.3970609 74.6941048,20.8217276 C74.3127715,21.2463942 73.8621048,21.4587276 73.3421048,21.4587276 C72.8221048,21.4587276 72.4147715,21.2940609 72.1201048,20.9647276 C71.8254382,20.6353942 71.6781048,20.0633942 71.6781048,19.2487276 L71.6781048,19.2487276 L71.6781048,9.18672756 L75.5261048,9.18672756 L75.5261048,8.66672756 L71.6781048,8.66672756 L71.6781048,4.32472756 C71.3487715,4.44606089 70.9847715,4.53272756 70.5861048,4.58472756 C70.1874382,4.63672756 69.7714382,4.67139422 69.3381048,4.68872756 L69.3381048,4.68872756 L69.3381048,8.66672756 L66.8421048,8.66672756 L66.8421048,9.18672756 L69.3381048,9.18672756 L69.3381048,17.8967276 C69.3381048,18.8153942 69.4117715,19.5520609 69.5591048,20.1067276 C69.7064382,20.6613942 69.9707715,21.1380609 70.3521048,21.5367276 C70.6467715,21.8140609 70.9847715,22.0263942 71.3661048,22.1737276 C71.7474382,22.3210609 72.2327715,22.3947276 72.8221048,22.3947276 Z M86.5134371,22.2127276 C87.0681038,22.2127276 87.5101038,22.1217276 87.8394371,21.9397276 C88.1687704,21.7577276 88.5154371,21.5280609 88.8794371,21.2507276 L88.8794371,21.2507276 L88.5934371,20.8087276 C88.4201038,20.9647276 88.2424371,21.0947276 88.0604371,21.1987276 C87.8784371,21.3027276 87.6661038,21.3547276 87.4234371,21.3547276 C87.1287704,21.3547276 86.9207704,21.2550609 86.7994371,21.0557276 C86.6781038,20.8563942 86.6174371,20.5487276 86.6174371,20.1327276 L86.6174371,20.1327276 L86.6174371,12.9047276 C86.6174371,12.0727276 86.5481038,11.3577276 86.4094371,10.7597276 C86.2707704,10.1617276 85.9761038,9.65472756 85.5254371,9.23872756 C85.1961038,8.92672756 84.7801038,8.68839422 84.2774371,8.52372756 C83.7747704,8.35906089 83.1681038,8.27672756 82.4574371,8.27672756 C81.6601038,8.27672756 80.9451038,8.37639422 80.3124371,8.57572756 C79.6797704,8.77506089 79.1641038,9.01339422 78.7654371,9.29072756 C78.4187704,9.53339422 78.1327704,9.79339422 77.9074371,10.0707276 C77.6821038,10.3480609 77.5694371,10.7120609 77.5694371,11.1627276 C77.5694371,11.5613942 77.6864371,11.9210609 77.9204371,12.2417276 C78.1544371,12.5623942 78.5227704,12.7227276 79.0254371,12.7227276 C79.4587704,12.7227276 79.8141038,12.5970609 80.0914371,12.3457276 C80.3687704,12.0943942 80.5074371,11.7520609 80.5074371,11.3187276 C80.5074371,10.8853942 80.3861038,10.5300609 80.1434371,10.2527276 C79.9007704,9.97539422 79.6147704,9.80206089 79.2854371,9.73272756 C79.5801038,9.35139422 79.9744371,9.10006089 80.4684371,8.97872756 C80.9624371,8.85739422 81.4261038,8.79672756 81.8594371,8.79672756 C82.3101038,8.79672756 82.7174371,8.86172756 83.0814371,8.99172756 C83.4454371,9.12172756 83.7357704,9.37739422 83.9524371,9.75872756 C84.1691038,10.1400609 84.2774371,10.6947276 84.2774371,11.4227276 L84.2774371,11.4227276 L84.2774371,13.0347276 C84.2774371,13.4333942 84.0997704,13.7627276 83.7444371,14.0227276 C83.3891038,14.2827276 82.9341038,14.5167276 82.3794371,14.7247276 C81.8247704,14.9327276 81.2397704,15.1450609 80.6244371,15.3617276 C80.0091038,15.5783942 79.4241038,15.8383942 78.8694371,16.1417276 C78.3147704,16.4450609 77.8597704,16.8350609 77.5044371,17.3117276 C77.1491038,17.7883942 76.9714371,18.3907276 76.9714371,19.1187276 C76.9714371,20.0547276 77.2271038,20.8043942 77.7384371,21.3677276 C78.2497704,21.9310609 79.0687704,22.2127276 80.1954371,22.2127276 C80.9581038,22.2127276 81.6904371,22.0567276 82.3924371,21.7447276 C83.0944371,21.4327276 83.7227704,20.8173942 84.2774371,19.8987276 C84.2774371,20.5053942 84.4247704,21.0427276 84.7194371,21.5107276 C85.0141038,21.9787276 85.6121038,22.2127276 86.5134371,22.2127276 Z M81.3394371,21.1727276 C80.7501038,21.1727276 80.2561038,20.9777276 79.8574371,20.5877276 C79.4587704,20.1977276 79.2594371,19.6040609 79.2594371,18.8067276 C79.2594371,17.9573942 79.4674371,17.3030609 79.8834371,16.8437276 C80.2994371,16.3843942 80.7977704,16.0203942 81.3784371,15.7517276 C81.9591038,15.4830609 82.5224371,15.2360609 83.0684371,15.0107276 C83.6144371,14.7853942 84.0174371,14.4820609 84.2774371,14.1007276 L84.2774371,14.1007276 L84.2774371,19.1967276 C83.8441038,19.9073942 83.3761038,20.4143942 82.8734371,20.7177276 C82.3707704,21.0210609 81.8594371,21.1727276 81.3394371,21.1727276 Z M95.7847694,22.0307276 L95.7847694,21.4847276 C95.0741027,21.4847276 94.5671027,21.3547276 94.2637694,21.0947276 C93.960436,20.8347276 93.8087694,20.3407276 93.8087694,19.6127276 L93.8087694,19.6127276 L93.8087694,1.64672756 C93.427436,1.76806089 93.0071027,1.85906089 92.5477694,1.91972756 C92.088436,1.98039422 91.607436,2.01072756 91.1047694,2.01072756 C90.5847694,2.01072756 90.047436,1.98472756 89.4927694,1.93272756 L89.4927694,1.93272756 L89.4927694,2.47872756 C90.255436,2.47872756 90.775436,2.66506089 91.0527694,3.03772756 C91.3301027,3.41039422 91.4687694,3.98672756 91.4687694,4.76672756 L91.4687694,4.76672756 L91.4687694,19.6127276 C91.4687694,20.3407276 91.3171027,20.8347276 91.0137694,21.0947276 C90.710436,21.3547276 90.203436,21.4847276 89.4927694,21.4847276 L89.4927694,21.4847276 L89.4927694,22.0307276 C89.787436,22.0133942 90.2381027,21.9917276 90.8447694,21.9657276 C91.451436,21.9397276 92.049436,21.9267276 92.6387694,21.9267276 C93.245436,21.9267276 93.8477694,21.9397276 94.4457694,21.9657276 C95.0437694,21.9917276 95.4901027,22.0133942 95.7847694,22.0307276 L95.7847694,22.0307276 Z M100.090102,5.46872756 C100.540768,5.46872756 100.930768,5.30406089 101.260102,4.97472756 C101.589435,4.64539422 101.754102,4.25539422 101.754102,3.80472756 C101.754102,3.35406089 101.589435,2.96406089 101.260102,2.63472756 C100.930768,2.30539422 100.540768,2.14072756 100.090102,2.14072756 C99.639435,2.14072756 99.249435,2.30539422 98.9201016,2.63472756 C98.5907683,2.96406089 98.4261016,3.35406089 98.4261016,3.80472756 C98.4261016,4.25539422 98.5907683,4.64539422 98.9201016,4.97472756 C99.249435,5.30406089 99.639435,5.46872756 100.090102,5.46872756 Z M103.418102,22.0307276 L103.418102,21.4847276 C102.707435,21.4847276 102.200435,21.3547276 101.897102,21.0947276 C101.593768,20.8347276 101.442102,20.3407276 101.442102,19.6127276 L101.442102,19.6127276 L101.442102,8.35472756 C101.060768,8.47606089 100.640435,8.56706089 100.181102,8.62772756 C99.7217683,8.68839422 99.2407683,8.71872756 98.7381016,8.71872756 C98.2181016,8.71872756 97.6807683,8.69272756 97.1261016,8.64072756 L97.1261016,8.64072756 L97.1261016,9.18672756 C97.8887683,9.18672756 98.4087683,9.37306089 98.6861016,9.74572756 C98.963435,10.1183942 99.1021016,10.6947276 99.1021016,11.4747276 L99.1021016,11.4747276 L99.1021016,19.6127276 C99.1021016,20.3407276 98.950435,20.8347276 98.6471016,21.0947276 C98.3437683,21.3547276 97.8367683,21.4847276 97.1261016,21.4847276 L97.1261016,21.4847276 L97.1261016,22.0307276 C97.4207683,22.0133942 97.871435,21.9917276 98.4781016,21.9657276 C99.0847683,21.9397276 99.6827683,21.9267276 100.272102,21.9267276 C100.878768,21.9267276 101.481102,21.9397276 102.079102,21.9657276 C102.677102,21.9917276 103.123435,22.0133942 103.418102,22.0307276 L103.418102,22.0307276 Z M114.561434,22.2127276 C115.116101,22.2127276 115.558101,22.1217276 115.887434,21.9397276 C116.216767,21.7577276 116.563434,21.5280609 116.927434,21.2507276 L116.927434,21.2507276 L116.641434,20.8087276 C116.468101,20.9647276 116.290434,21.0947276 116.108434,21.1987276 C115.926434,21.3027276 115.714101,21.3547276 115.471434,21.3547276 C115.176767,21.3547276 114.968767,21.2550609 114.847434,21.0557276 C114.726101,20.8563942 114.665434,20.5487276 114.665434,20.1327276 L114.665434,20.1327276 L114.665434,12.9047276 C114.665434,12.0727276 114.596101,11.3577276 114.457434,10.7597276 C114.318767,10.1617276 114.024101,9.65472756 113.573434,9.23872756 C113.244101,8.92672756 112.828101,8.68839422 112.325434,8.52372756 C111.822767,8.35906089 111.216101,8.27672756 110.505434,8.27672756 C109.708101,8.27672756 108.993101,8.37639422 108.360434,8.57572756 C107.727767,8.77506089 107.212101,9.01339422 106.813434,9.29072756 C106.466767,9.53339422 106.180767,9.79339422 105.955434,10.0707276 C105.730101,10.3480609 105.617434,10.7120609 105.617434,11.1627276 C105.617434,11.5613942 105.734434,11.9210609 105.968434,12.2417276 C106.202434,12.5623942 106.570767,12.7227276 107.073434,12.7227276 C107.506767,12.7227276 107.862101,12.5970609 108.139434,12.3457276 C108.416767,12.0943942 108.555434,11.7520609 108.555434,11.3187276 C108.555434,10.8853942 108.434101,10.5300609 108.191434,10.2527276 C107.948767,9.97539422 107.662767,9.80206089 107.333434,9.73272756 C107.628101,9.35139422 108.022434,9.10006089 108.516434,8.97872756 C109.010434,8.85739422 109.474101,8.79672756 109.907434,8.79672756 C110.358101,8.79672756 110.765434,8.86172756 111.129434,8.99172756 C111.493434,9.12172756 111.783767,9.37739422 112.000434,9.75872756 C112.217101,10.1400609 112.325434,10.6947276 112.325434,11.4227276 L112.325434,11.4227276 L112.325434,13.0347276 C112.325434,13.4333942 112.147767,13.7627276 111.792434,14.0227276 C111.437101,14.2827276 110.982101,14.5167276 110.427434,14.7247276 C109.872767,14.9327276 109.287767,15.1450609 108.672434,15.3617276 C108.057101,15.5783942 107.472101,15.8383942 106.917434,16.1417276 C106.362767,16.4450609 105.907767,16.8350609 105.552434,17.3117276 C105.197101,17.7883942 105.019434,18.3907276 105.019434,19.1187276 C105.019434,20.0547276 105.275101,20.8043942 105.786434,21.3677276 C106.297767,21.9310609 107.116767,22.2127276 108.243434,22.2127276 C109.006101,22.2127276 109.738434,22.0567276 110.440434,21.7447276 C111.142434,21.4327276 111.770767,20.8173942 112.325434,19.8987276 C112.325434,20.5053942 112.472767,21.0427276 112.767434,21.5107276 C113.062101,21.9787276 113.660101,22.2127276 114.561434,22.2127276 Z M109.387434,21.1727276 C108.798101,21.1727276 108.304101,20.9777276 107.905434,20.5877276 C107.506767,20.1977276 107.307434,19.6040609 107.307434,18.8067276 C107.307434,17.9573942 107.515434,17.3030609 107.931434,16.8437276 C108.347434,16.3843942 108.845767,16.0203942 109.426434,15.7517276 C110.007101,15.4830609 110.570434,15.2360609 111.116434,15.0107276 C111.662434,14.7853942 112.065434,14.4820609 112.325434,14.1007276 L112.325434,14.1007276 L112.325434,19.1967276 C111.892101,19.9073942 111.424101,20.4143942 110.921434,20.7177276 C110.418767,21.0210609 109.907434,21.1727276 109.387434,21.1727276 Z M123.260766,22.3947276 C124.196766,22.3947276 124.955099,22.1563942 125.535766,21.6797276 C126.000299,21.2983942 126.362219,20.7756209 126.621526,20.1114076 L126.639773,20.0597276 L126.640766,22.2907276 C127.070633,22.1797942 127.531006,22.0965942 128.021886,22.0411276 L128.395766,22.0047276 C129.028433,21.9527276 129.708766,21.9267276 130.436766,21.9267276 C130.974099,21.9267276 131.511433,21.9527276 132.048766,22.0047276 L132.048766,22.0047276 L132.048766,21.4587276 C131.424766,21.4587276 130.991433,21.2723942 130.748766,20.8997276 C130.506099,20.5270609 130.384766,19.9507276 130.384766,19.1707276 L130.384766,19.1707276 L130.384766,1.67272756 C129.847433,1.79406089 129.258099,1.88506089 128.616766,1.94572756 C127.975433,2.00639422 127.299433,2.03672756 126.588766,2.03672756 C126.068766,2.03672756 125.531433,2.01072756 124.976766,1.95872756 L124.976766,1.95872756 L124.976766,2.50472756 C125.618099,2.50472756 126.055766,2.69106089 126.289766,3.06372756 C126.523766,3.43639422 126.640766,4.01272756 126.640766,4.79272756 L126.640766,4.79272756 L126.639773,9.19772756 L126.621186,9.17709793 C126.425169,8.98193743 126.20433,8.82015966 125.958667,8.69176459 L125.769766,8.60172756 C125.189099,8.35039422 124.517433,8.22472756 123.754766,8.22472756 C122.645433,8.22472756 121.653099,8.48472756 120.777766,9.00472756 C119.902433,9.52472756 119.213433,10.3003942 118.710766,11.3317276 C118.208099,12.3630609 117.956766,13.6673942 117.956766,15.2447276 C117.956766,16.9087276 118.182099,18.2650609 118.632766,19.3137276 C119.083433,20.3623942 119.711766,21.1380609 120.517766,21.6407276 C121.323766,22.1433942 122.238099,22.3947276 123.260766,22.3947276 Z M124.326766,21.2767276 C123.841433,21.2767276 123.412433,21.0860609 123.039766,20.7047276 C122.667099,20.3233942 122.381099,19.6950609 122.181766,18.8197276 C121.982433,17.9443942 121.882766,16.7700609 121.882766,15.2967276 C121.865433,13.1473942 122.116766,11.5570609 122.636766,10.5257276 C123.156766,9.49439422 123.858766,8.97872756 124.742766,8.97872756 C125.158766,8.97872756 125.553099,9.06972756 125.925766,9.25172756 C126.191957,9.38172756 126.420562,9.57142144 126.611582,9.82080919 L126.639773,9.86272756 L126.639773,18.9867276 L126.619966,19.1353676 C126.535033,19.6473942 126.343933,20.0787342 126.046666,20.4293876 L125.912766,20.5747276 C125.444766,21.0427276 124.916099,21.2767276 124.326766,21.2767276 Z M139.864098,22.3947276 C141.129432,22.3947276 142.238765,22.1607276 143.192098,21.6927276 C144.145432,21.2247276 144.890765,20.4750609 145.428098,19.4437276 C145.965432,18.4123942 146.234098,17.0387276 146.234098,15.3227276 C146.234098,13.6067276 145.965432,12.2287276 145.428098,11.1887276 C144.890765,10.1487276 144.145432,9.39472756 143.192098,8.92672756 C142.238765,8.45872756 141.129432,8.22472756 139.864098,8.22472756 C138.633432,8.22472756 137.537098,8.45872756 136.575098,8.92672756 C135.613098,9.39472756 134.859098,10.1487276 134.313098,11.1887276 C133.767098,12.2287276 133.494098,13.6067276 133.494098,15.3227276 C133.494098,17.0387276 133.767098,18.4123942 134.313098,19.4437276 C134.859098,20.4750609 135.613098,21.2247276 136.575098,21.6927276 C137.537098,22.1607276 138.633432,22.3947276 139.864098,22.3947276 Z M139.864098,21.8747276 C139.170765,21.8747276 138.590098,21.3633942 138.122098,20.3407276 C137.654098,19.3180609 137.420098,17.6453942 137.420098,15.3227276 C137.420098,13.0000609 137.654098,11.3230609 138.122098,10.2917276 C138.590098,9.26039422 139.170765,8.74472756 139.864098,8.74472756 C140.574765,8.74472756 141.159765,9.26039422 141.619098,10.2917276 C142.078432,11.3230609 142.308098,13.0000609 142.308098,15.3227276 C142.308098,17.6453942 142.078432,19.3180609 141.619098,20.3407276 C141.159765,21.3633942 140.574765,21.8747276 139.864098,21.8747276 Z M170.429431,22.0307276 L170.429431,21.4847276 C169.822764,21.4847276 169.393764,21.3547276 169.142431,21.0947276 C168.891097,20.8347276 168.765431,20.3407276 168.765431,19.6127276 L168.765431,19.6127276 L168.765431,12.6187276 C168.765431,11.7520609 168.704764,11.0543942 168.583431,10.5257276 C168.462097,9.99706089 168.262764,9.56806089 167.985431,9.23872756 C167.708097,8.92672756 167.344097,8.67972756 166.893431,8.49772756 C166.442764,8.31572756 165.853431,8.22472756 165.125431,8.22472756 C164.241431,8.22472756 163.413764,8.40672756 162.642431,8.77072756 C161.871097,9.13472756 161.251431,9.83672756 160.783431,10.8767276 L160.812773,10.8127276 L160.800087,10.7318994 L160.800087,10.7318994 L160.757431,10.5257276 C160.636097,9.99706089 160.436764,9.56806089 160.159431,9.23872756 C159.882097,8.92672756 159.518097,8.67972756 159.067431,8.49772756 C158.616764,8.31572756 158.027431,8.22472756 157.299431,8.22472756 C156.450097,8.22472756 155.670097,8.41106089 154.959431,8.78372756 C154.248764,9.15639422 153.685431,9.77606089 153.269431,10.6427276 L153.269431,10.6427276 L153.269431,8.30272756 C152.732097,8.42406089 152.147097,8.51506089 151.514431,8.57572756 C150.881764,8.63639422 150.201431,8.66672756 149.473431,8.66672756 C148.953431,8.66672756 148.416097,8.64072756 147.861431,8.58872756 L147.861431,8.58872756 L147.861431,9.13472756 C148.502764,9.13472756 148.940431,9.32106089 149.174431,9.69372756 C149.408431,10.0663942 149.525431,10.6427276 149.525431,11.4227276 L149.525431,11.4227276 L149.525431,19.6127276 C149.525431,20.3407276 149.399764,20.8347276 149.148431,21.0947276 C148.897097,21.3547276 148.468097,21.4847276 147.861431,21.4847276 L147.861431,21.4847276 L147.861431,22.0307276 C148.208097,22.0133942 148.728097,21.9917276 149.421431,21.9657276 C150.114764,21.9397276 150.790764,21.9267276 151.449431,21.9267276 C152.056097,21.9267276 152.649764,21.9397276 153.230431,21.9657276 C153.811097,21.9917276 154.240097,22.0133942 154.517431,22.0307276 L154.517431,22.0307276 L154.517431,21.4847276 C154.066764,21.4847276 153.746097,21.3547276 153.555431,21.0947276 C153.364764,20.8347276 153.269431,20.3407276 153.269431,19.6127276 L153.269431,19.6127276 L153.269431,12.3847276 C153.269431,11.8127276 153.386431,11.2970609 153.620431,10.8377276 C153.854431,10.3783942 154.162097,10.0187276 154.543431,9.75872756 C154.924764,9.49872756 155.340764,9.36872756 155.791431,9.36872756 C156.190097,9.36872756 156.489097,9.45972756 156.688431,9.64172756 C156.887764,9.82372756 157.022097,10.0750609 157.091431,10.3957276 C157.160764,10.7163942 157.195431,11.0933942 157.195431,11.5267276 L157.195431,11.5267276 L157.195431,19.6127276 C157.195431,20.3407276 157.104431,20.8347276 156.922431,21.0947276 C156.740431,21.3547276 156.415431,21.4847276 155.947431,21.4847276 L155.947431,21.4847276 L155.947431,22.0307276 C156.259431,22.0133942 156.718764,21.9917276 157.325431,21.9657276 C157.932097,21.9397276 158.547431,21.9267276 159.171431,21.9267276 C159.778097,21.9267276 160.397764,21.9397276 161.030431,21.9657276 C161.663097,21.9917276 162.135431,22.0133942 162.447431,22.0307276 L162.447431,22.0307276 L162.447431,21.4847276 C161.892764,21.4847276 161.502764,21.3547276 161.277431,21.0947276 C161.052097,20.8347276 160.939431,20.3407276 160.939431,19.6127276 L160.939431,19.6127276 L160.939431,12.6187276 C160.939431,12.5103942 160.938483,12.4047015 160.936587,12.3016494 L160.931773,12.1527276 L160.952951,11.9588476 C161.033031,11.3897942 161.232017,10.8865642 161.549911,10.4491576 L161.693431,10.2657276 C162.196097,9.66772756 162.785431,9.36872756 163.461431,9.36872756 C163.912097,9.36872756 164.245764,9.45972756 164.462431,9.64172756 C164.679097,9.82372756 164.826431,10.0750609 164.904431,10.3957276 C164.982431,10.7163942 165.021431,11.0933942 165.021431,11.5267276 L165.021431,11.5267276 L165.021431,19.6127276 C165.021431,20.3407276 164.930431,20.8347276 164.748431,21.0947276 C164.566431,21.3547276 164.241431,21.4847276 163.773431,21.4847276 L163.773431,21.4847276 L163.773431,22.0307276 C164.085431,22.0133942 164.544764,21.9917276 165.151431,21.9657276 C165.758097,21.9397276 166.373431,21.9267276 166.997431,21.9267276 C167.638764,21.9267276 168.288764,21.9397276 168.947431,21.9657276 C169.606097,21.9917276 170.100097,22.0133942 170.429431,22.0307276 L170.429431,22.0307276 Z M181.260763,22.2127276 C181.850096,22.2127276 182.383096,22.1303942 182.859763,21.9657276 C183.33643,21.8010609 183.756763,21.5627276 184.120763,21.2507276 L184.120763,21.2507276 L183.860763,20.8087276 C183.722096,20.9300609 183.574763,21.0340609 183.418763,21.1207276 C183.262763,21.2073942 183.098096,21.2507276 182.924763,21.2507276 C182.716763,21.2507276 182.56943,21.1640609 182.482763,20.9907276 C182.396096,20.8173942 182.352763,20.5227276 182.352763,20.1067276 L182.352763,20.1067276 L182.352763,13.0347276 C182.352763,12.1507276 182.292096,11.4183942 182.170763,10.8377276 C182.04943,10.2570609 181.78943,9.76739422 181.390763,9.36872756 C180.95743,8.93539422 180.420096,8.63639422 179.778763,8.47172756 C179.13743,8.30706089 178.418096,8.22472756 177.620763,8.22472756 C176.82343,8.22472756 176.08243,8.30272756 175.397763,8.45872756 C174.713096,8.61472756 174.128096,8.83139422 173.642763,9.10872756 C173.192096,9.40339422 172.841096,9.71539422 172.589763,10.0447276 C172.33843,10.3740609 172.212763,10.7900609 172.212763,11.2927276 C172.212763,11.8473942 172.373096,12.3197276 172.693763,12.7097276 C173.01443,13.0997276 173.486763,13.2947276 174.110763,13.2947276 C174.66543,13.2947276 175.14643,13.1213942 175.553763,12.7747276 C175.961096,12.4280609 176.164763,11.9600609 176.164763,11.3707276 C176.164763,10.9200609 176.03043,10.5170609 175.761763,10.1617276 C175.493096,9.80639422 175.116096,9.54206089 174.630763,9.36872756 C174.856096,9.14339422 175.142096,8.98306089 175.488763,8.88772756 C175.83543,8.79239422 176.182096,8.74472756 176.528763,8.74472756 C177.014096,8.74472756 177.40843,8.84006089 177.711763,9.03072756 C178.015096,9.22139422 178.24043,9.49439422 178.387763,9.84972756 C178.535096,10.2050609 178.608763,10.6080609 178.608763,11.0587276 L178.608763,11.0587276 L178.608763,13.0867276 C178.608763,13.4853942 178.439763,13.8147276 178.101763,14.0747276 C177.763763,14.3347276 177.321763,14.5643942 176.775763,14.7637276 C176.229763,14.9630609 175.657763,15.1623942 175.059763,15.3617276 C174.461763,15.5610609 173.894096,15.8123942 173.356763,16.1157276 C172.81943,16.4190609 172.381763,16.8047276 172.043763,17.2727276 C171.705763,17.7407276 171.536763,18.3473942 171.536763,19.0927276 C171.536763,19.9593942 171.796763,20.6960609 172.316763,21.3027276 C172.836763,21.9093942 173.67743,22.2127276 174.838763,22.2127276 C175.688096,22.2127276 176.429096,22.0393942 177.061763,21.6927276 C177.69443,21.3460609 178.22743,20.8173942 178.660763,20.1067276 C178.678096,20.6613942 178.855763,21.1510609 179.193763,21.5757276 C179.531763,22.0003942 180.220763,22.2127276 181.260763,22.2127276 Z M176.840763,20.5487276 C176.390096,20.5487276 176.008763,20.3883942 175.696763,20.0677276 C175.384763,19.7470609 175.228763,19.2140609 175.228763,18.4687276 C175.228763,17.7753942 175.358763,17.2207276 175.618763,16.8047276 C175.878763,16.3887276 176.203763,16.0463942 176.593763,15.7777276 C176.983763,15.5090609 177.365096,15.2577276 177.737763,15.0237276 C178.11043,14.7897276 178.400763,14.4993942 178.608763,14.1527276 L178.608763,14.1527276 L178.608763,19.4827276 C178.33143,19.8813942 178.049763,20.1587276 177.763763,20.3147276 C177.477763,20.4707276 177.170096,20.5487276 176.840763,20.5487276 Z M199.892095,22.0307276 L199.892095,21.4847276 C199.285429,21.4847276 198.856429,21.3547276 198.605095,21.0947276 C198.353762,20.8347276 198.228095,20.3407276 198.228095,19.6127276 L198.228095,19.6127276 L198.228095,12.6187276 C198.228095,11.7347276 198.163095,11.0327276 198.033095,10.5127276 C197.903095,9.99272756 197.699429,9.56806089 197.422095,9.23872756 C197.162095,8.92672756 196.802429,8.67972756 196.343095,8.49772756 C195.883762,8.31572756 195.290095,8.22472756 194.562095,8.22472756 C193.643429,8.22472756 192.811429,8.40672756 192.066095,8.77072756 C191.320762,9.13472756 190.731429,9.75872756 190.298095,10.6427276 L190.298095,10.6427276 L190.298095,8.30272756 C189.760762,8.42406089 189.175762,8.51506089 188.543095,8.57572756 C187.910429,8.63639422 187.230095,8.66672756 186.502095,8.66672756 C185.982095,8.66672756 185.444762,8.64072756 184.890095,8.58872756 L184.890095,8.58872756 L184.890095,9.13472756 C185.531429,9.13472756 185.969095,9.32106089 186.203095,9.69372756 C186.437095,10.0663942 186.554095,10.6427276 186.554095,11.4227276 L186.554095,11.4227276 L186.554095,19.6127276 C186.554095,20.3407276 186.428429,20.8347276 186.177095,21.0947276 C185.925762,21.3547276 185.496762,21.4847276 184.890095,21.4847276 L184.890095,21.4847276 L184.890095,22.0307276 C185.236762,22.0133942 185.756762,21.9917276 186.450095,21.9657276 C187.143429,21.9397276 187.819429,21.9267276 188.478095,21.9267276 C189.119429,21.9267276 189.739095,21.9397276 190.337095,21.9657276 C190.935095,21.9917276 191.390095,22.0133942 191.702095,22.0307276 L191.702095,22.0307276 L191.702095,21.4847276 C191.199429,21.4847276 190.839762,21.3547276 190.623095,21.0947276 C190.406429,20.8347276 190.298095,20.3407276 190.298095,19.6127276 L190.298095,19.6127276 L190.298095,12.3847276 C190.298095,11.5180609 190.545095,10.7987276 191.039095,10.2267276 C191.533095,9.65472756 192.144095,9.36872756 192.872095,9.36872756 C193.322762,9.36872756 193.660762,9.45972756 193.886095,9.64172756 C194.111429,9.82372756 194.267429,10.0750609 194.354095,10.3957276 C194.440762,10.7163942 194.484095,11.0933942 194.484095,11.5267276 L194.484095,11.5267276 L194.484095,19.6127276 C194.484095,20.3407276 194.380095,20.8347276 194.172095,21.0947276 C193.964095,21.3547276 193.600095,21.4847276 193.080095,21.4847276 L193.080095,21.4847276 L193.080095,22.0307276 C193.409429,22.0133942 193.890429,21.9917276 194.523095,21.9657276 C195.155762,21.9397276 195.801429,21.9267276 196.460095,21.9267276 C197.101429,21.9267276 197.751429,21.9397276 198.410095,21.9657276 C199.068762,21.9917276 199.562762,22.0133942 199.892095,22.0307276 L199.892095,22.0307276 Z M204.249428,5.88472756 C204.977428,5.88472756 205.553761,5.70706089 205.978428,5.35172756 C206.403094,4.99639422 206.615428,4.50672756 206.615428,3.88272756 C206.615428,3.25872756 206.403094,2.76906089 205.978428,2.41372756 C205.553761,2.05839422 204.977428,1.88072756 204.249428,1.88072756 C203.521428,1.88072756 202.945094,2.05839422 202.520428,2.41372756 C202.095761,2.76906089 201.883428,3.25872756 201.883428,3.88272756 C201.883428,4.50672756 202.095761,4.99639422 202.520428,5.35172756 C202.945094,5.70706089 203.521428,5.88472756 204.249428,5.88472756 Z M207.941428,22.0307276 L207.941428,21.4847276 C207.334761,21.4847276 206.905761,21.3547276 206.654428,21.0947276 C206.403094,20.8347276 206.277428,20.3407276 206.277428,19.6127276 L206.277428,19.6127276 L206.277428,8.30272756 C205.740094,8.42406089 205.155094,8.51506089 204.522428,8.57572756 C203.889761,8.63639422 203.209428,8.66672756 202.481428,8.66672756 C201.961428,8.66672756 201.424094,8.64072756 200.869428,8.58872756 L200.869428,8.58872756 L200.869428,9.13472756 C201.510761,9.13472756 201.948428,9.32106089 202.182428,9.69372756 C202.416428,10.0663942 202.533428,10.6427276 202.533428,11.4227276 L202.533428,11.4227276 L202.533428,19.6127276 C202.533428,20.3407276 202.407761,20.8347276 202.156428,21.0947276 C201.905094,21.3547276 201.476094,21.4847276 200.869428,21.4847276 L200.869428,21.4847276 L200.869428,22.0307276 C201.216094,22.0133942 201.736094,21.9917276 202.429428,21.9657276 C203.122761,21.9397276 203.807428,21.9267276 204.483428,21.9267276 C205.159428,21.9267276 205.826761,21.9397276 206.485428,21.9657276 C207.144094,21.9917276 207.629428,22.0133942 207.941428,22.0307276 L207.941428,22.0307276 Z" id="Italiadomani" fill="#000000" fill-rule="nonzero"></path>
            <path d="M62.0579383,39.9810907 L62.0579383,37.1850907 L64.1699383,37.1850907 C65.9379383,37.1850907 66.8219383,36.2410907 66.8219383,34.3530907 C66.8219383,33.4490907 66.6059383,32.7770907 66.1739383,32.3370907 C65.7419383,31.8970907 65.0739383,31.6770907 64.1699383,31.6770907 L64.1699383,31.6770907 L61.1339383,31.6770907 L61.1339383,39.9810907 L62.0579383,39.9810907 Z M64.1579383,36.3690907 L62.0579383,36.3690907 L62.0579383,32.4930907 L64.1579383,32.4930907 C64.7579383,32.4930907 65.1939383,32.6430907 65.4659383,32.9430907 C65.7379383,33.2430907 65.8739383,33.7130907 65.8739383,34.3530907 C65.8739383,35.6970907 65.3019383,36.3690907 64.1579383,36.3690907 L64.1579383,36.3690907 Z M69.1739383,39.9810907 L69.1739383,31.6770907 L68.2499383,31.6770907 L68.2499383,39.9810907 L69.1739383,39.9810907 Z M71.3819383,39.9810907 L71.9819383,37.8450907 L75.5339383,37.8450907 L76.1339383,39.9810907 L77.0459383,39.9810907 L74.7659383,31.6770907 L72.7499383,31.6770907 L70.4699383,39.9810907 L71.3819383,39.9810907 Z M75.3299383,37.0170907 L72.1859383,37.0170907 L73.4459383,32.4690907 L74.0699383,32.4690907 L75.3299383,37.0170907 Z M79.2779383,39.9810907 L79.2779383,32.4930907 L79.5059383,32.4930907 L82.7339383,39.9810907 L84.4259383,39.9810907 L84.4259383,31.6770907 L83.5139383,31.6770907 L83.5139383,39.1650907 L83.2619383,39.1650907 L80.0819383,31.6770907 L78.3539383,31.6770907 L78.3539383,39.9810907 L79.2779383,39.9810907 Z M89.4119383,40.1010907 C90.6559383,40.1010907 91.5139383,39.7690907 91.9859383,39.1050907 C92.4579383,38.4410907 92.6939383,37.3690907 92.6939383,35.8890907 C92.6939383,34.4090907 92.4519383,33.3170907 91.9679383,32.6130907 C91.4839383,31.9090907 90.6299383,31.5570907 89.4059383,31.5570907 C88.1819383,31.5570907 87.3299383,31.9110907 86.8499383,32.6190907 C86.3699383,33.3270907 86.1299383,34.4110907 86.1299383,35.8710907 C86.1299383,37.3310907 86.3659383,38.4010907 86.8379383,39.0810907 C87.3099383,39.7610907 88.1679383,40.1010907 89.4119383,40.1010907 Z M89.4119383,39.2850907 C88.4959383,39.2850907 87.8779383,39.0190907 87.5579383,38.4870907 C87.2379383,37.9550907 87.0779383,37.0810907 87.0779383,35.8650907 C87.0779383,34.6490907 87.2399383,33.7630907 87.5639383,33.2070907 C87.8879383,32.6510907 88.4999383,32.3730907 89.3999383,32.3730907 C90.2999383,32.3730907 90.9139383,32.6530907 91.2419383,33.2130907 C91.5699383,33.7730907 91.7339383,34.6650907 91.7339383,35.8890907 C91.7339383,37.1130907 91.5759383,37.9850907 91.2599383,38.5050907 C90.9439383,39.0250907 90.3279383,39.2850907 89.4119383,39.2850907 Z M97.9499383,39.9810907 L97.9499383,32.4930907 L98.1779383,32.4930907 L101.405938,39.9810907 L103.097938,39.9810907 L103.097938,31.6770907 L102.185938,31.6770907 L102.185938,39.1650907 L101.933938,39.1650907 L98.7539383,31.6770907 L97.0259383,31.6770907 L97.0259383,39.9810907 L97.9499383,39.9810907 Z M105.317938,39.9810907 L105.917938,37.8450907 L109.469938,37.8450907 L110.069938,39.9810907 L110.981938,39.9810907 L108.701938,31.6770907 L106.685938,31.6770907 L104.405938,39.9810907 L105.317938,39.9810907 Z M109.265938,37.0170907 L106.121938,37.0170907 L107.381938,32.4690907 L108.005938,32.4690907 L109.265938,37.0170907 Z M117.185938,39.9930907 L117.185938,39.1650907 L112.841938,39.1650907 L112.841938,38.9250907 L117.185938,32.7570907 L117.185938,31.6770907 L111.785938,31.6770907 L111.785938,32.4930907 L116.117938,32.4930907 L116.117938,32.7570907 L111.785938,38.9250907 L111.785938,39.9930907 L117.185938,39.9930907 Z M119.645938,39.9810907 L119.645938,31.6770907 L118.721938,31.6770907 L118.721938,39.9810907 L119.645938,39.9810907 Z M124.619938,40.1010907 C125.863938,40.1010907 126.721938,39.7690907 127.193938,39.1050907 C127.665938,38.4410907 127.901938,37.3690907 127.901938,35.8890907 C127.901938,34.4090907 127.659938,33.3170907 127.175938,32.6130907 C126.691938,31.9090907 125.837938,31.5570907 124.613938,31.5570907 C123.389938,31.5570907 122.537938,31.9110907 122.057938,32.6190907 C121.577938,33.3270907 121.337938,34.4110907 121.337938,35.8710907 C121.337938,37.3310907 121.573938,38.4010907 122.045938,39.0810907 C122.517938,39.7610907 123.375938,40.1010907 124.619938,40.1010907 Z M124.619938,39.2850907 C123.703938,39.2850907 123.085938,39.0190907 122.765938,38.4870907 C122.445938,37.9550907 122.285938,37.0810907 122.285938,35.8650907 C122.285938,34.6490907 122.447938,33.7630907 122.771938,33.2070907 C123.095938,32.6510907 123.707938,32.3730907 124.607938,32.3730907 C125.507938,32.3730907 126.121938,32.6530907 126.449938,33.2130907 C126.777938,33.7730907 126.941938,34.6650907 126.941938,35.8890907 C126.941938,37.1130907 126.783938,37.9850907 126.467938,38.5050907 C126.151938,39.0250907 125.535938,39.2850907 124.619938,39.2850907 Z M130.517938,39.9810907 L130.517938,32.4930907 L130.745938,32.4930907 L133.973938,39.9810907 L135.665938,39.9810907 L135.665938,31.6770907 L134.753938,31.6770907 L134.753938,39.1650907 L134.501938,39.1650907 L131.321938,31.6770907 L129.593938,31.6770907 L129.593938,39.9810907 L130.517938,39.9810907 Z M137.885938,39.9810907 L138.485938,37.8450907 L142.037938,37.8450907 L142.637938,39.9810907 L143.549938,39.9810907 L141.269938,31.6770907 L139.253938,31.6770907 L136.973938,39.9810907 L137.885938,39.9810907 Z M141.833938,37.0170907 L138.689938,37.0170907 L139.949938,32.4690907 L140.573938,32.4690907 L141.833938,37.0170907 Z M149.429938,39.9810907 L149.429938,39.1530907 L145.781938,39.1530907 L145.781938,31.6770907 L144.857938,31.6770907 L144.857938,39.9810907 L149.429938,39.9810907 Z M155.657938,39.9810907 L155.657938,39.1650907 L151.529938,39.1650907 L151.529938,36.1650907 L154.937938,36.1650907 L154.937938,35.3610907 L151.529938,35.3610907 L151.529938,32.4930907 L155.657938,32.4930907 L155.657938,31.6770907 L150.605938,31.6770907 L150.605938,39.9810907 L155.657938,39.9810907 Z M162.845938,39.9810907 C163.437938,39.9810907 163.941938,39.8730907 164.357938,39.6570907 C165.397938,39.1130907 165.917938,37.7970907 165.917938,35.7090907 C165.917938,34.7090907 165.789938,33.9010907 165.533938,33.2850907 C165.093938,32.2130907 164.197938,31.6770907 162.845938,31.6770907 L162.845938,31.6770907 L159.881938,31.6770907 L159.881938,39.9810907 L162.845938,39.9810907 Z M162.845938,39.1650907 L160.805938,39.1650907 L160.805938,32.4930907 L162.845938,32.4930907 C163.261938,32.4930907 163.613938,32.5730907 163.901938,32.7330907 C164.613938,33.1250907 164.969938,34.1170907 164.969938,35.7090907 C164.969938,38.0130907 164.261938,39.1650907 162.845938,39.1650907 L162.845938,39.1650907 Z M168.545938,39.9810907 L168.545938,31.6770907 L167.621938,31.6770907 L167.621938,39.9810907 L168.545938,39.9810907 Z M174.137938,39.9810907 L174.137938,36.8010907 L176.489938,36.8010907 L177.989938,39.9810907 L179.009938,39.9810907 L177.413938,36.6090907 C178.429938,36.2810907 178.937938,35.4770907 178.937938,34.1970907 C178.937938,33.3330907 178.715938,32.6970907 178.271938,32.2890907 C177.827938,31.8810907 177.165938,31.6770907 176.285938,31.6770907 L176.285938,31.6770907 L173.213938,31.6770907 L173.213938,39.9810907 L174.137938,39.9810907 Z M176.297938,35.9850907 L174.137938,35.9850907 L174.137938,32.4930907 L176.285938,32.4930907 C177.421938,32.4930907 177.989938,33.0750907 177.989938,34.2390907 C177.989938,35.4030907 177.425938,35.9850907 176.297938,35.9850907 L176.297938,35.9850907 Z M181.529938,39.9810907 L181.529938,31.6770907 L180.605938,31.6770907 L180.605938,39.9810907 L181.529938,39.9810907 Z M184.481938,39.9810907 L184.481938,37.1850907 L186.593938,37.1850907 C188.361938,37.1850907 189.245938,36.2410907 189.245938,34.3530907 C189.245938,33.4490907 189.029938,32.7770907 188.597938,32.3370907 C188.165938,31.8970907 187.497938,31.6770907 186.593938,31.6770907 L186.593938,31.6770907 L183.557938,31.6770907 L183.557938,39.9810907 L184.481938,39.9810907 Z M186.581938,36.3690907 L184.481938,36.3690907 L184.481938,32.4930907 L186.581938,32.4930907 C187.181938,32.4930907 187.617938,32.6430907 187.889938,32.9430907 C188.161938,33.2430907 188.297938,33.7130907 188.297938,34.3530907 C188.297938,35.6970907 187.725938,36.3690907 186.581938,36.3690907 L186.581938,36.3690907 Z M191.597938,39.9810907 L191.597938,36.8010907 L193.949938,36.8010907 L195.449938,39.9810907 L196.469938,39.9810907 L194.873938,36.6090907 C195.889938,36.2810907 196.397938,35.4770907 196.397938,34.1970907 C196.397938,33.3330907 196.175938,32.6970907 195.731938,32.2890907 C195.287938,31.8810907 194.625938,31.6770907 193.745938,31.6770907 L193.745938,31.6770907 L190.673938,31.6770907 L190.673938,39.9810907 L191.597938,39.9810907 Z M193.757938,35.9850907 L191.597938,35.9850907 L191.597938,32.4930907 L193.745938,32.4930907 C194.881938,32.4930907 195.449938,33.0750907 195.449938,34.2390907 C195.449938,35.4030907 194.885938,35.9850907 193.757938,35.9850907 L193.757938,35.9850907 Z M203.117938,39.9810907 L203.117938,39.1650907 L198.989938,39.1650907 L198.989938,36.1650907 L202.397938,36.1650907 L202.397938,35.3610907 L198.989938,35.3610907 L198.989938,32.4930907 L203.117938,32.4930907 L203.117938,31.6770907 L198.065938,31.6770907 L198.065938,39.9810907 L203.117938,39.9810907 Z M206.957938,40.0890907 C208.725938,40.0890907 209.609938,39.2370907 209.609938,37.5330907 C209.609938,36.8450907 209.433938,36.3510907 209.081938,36.0510907 C208.729938,35.7510907 208.131938,35.5070907 207.287938,35.3190907 C206.443938,35.1310907 205.883938,34.9430907 205.607938,34.7550907 C205.331938,34.5670907 205.193938,34.2210907 205.193938,33.7170907 C205.193938,32.8130907 205.793938,32.3610907 206.993938,32.3610907 C207.457938,32.3610907 208.245938,32.4290907 209.357938,32.5650907 L209.357938,32.5650907 L209.441938,31.7850907 L209.033938,31.7250907 C208.217938,31.6050907 207.517938,31.5450907 206.933938,31.5450907 C205.149938,31.5450907 204.257938,32.2890907 204.257938,33.7770907 C204.257938,34.5210907 204.453938,35.0510907 204.845938,35.3670907 C205.237938,35.6830907 205.901938,35.9410907 206.837938,36.1410907 C207.549938,36.2770907 208.035938,36.4430907 208.295938,36.6390907 C208.555938,36.8350907 208.685938,37.1570907 208.685938,37.6050907 C208.685938,38.7170907 208.093938,39.2730907 206.909938,39.2730907 C206.341938,39.2730907 205.513938,39.2010907 204.425938,39.0570907 L204.425938,39.0570907 L204.329938,39.8250907 L204.761938,39.8850907 C205.641938,40.0210907 206.373938,40.0890907 206.957938,40.0890907 Z M211.385938,39.9810907 L211.985938,37.8450907 L215.537938,37.8450907 L216.137938,39.9810907 L217.049938,39.9810907 L214.769938,31.6770907 L212.753938,31.6770907 L210.473938,39.9810907 L211.385938,39.9810907 Z M215.333938,37.0170907 L212.189938,37.0170907 L213.449938,32.4690907 L214.073938,32.4690907 L215.333938,37.0170907 Z M226.049938,39.9810907 L226.049938,39.1650907 L221.921938,39.1650907 L221.921938,36.1650907 L225.329938,36.1650907 L225.329938,35.3610907 L221.921938,35.3610907 L221.921938,32.4930907 L226.049938,32.4930907 L226.049938,31.6770907 L220.997938,31.6770907 L220.997938,39.9810907 L226.049938,39.9810907 Z M231.197938,39.9810907 L231.197938,36.8010907 L233.549938,36.8010907 L235.049938,39.9810907 L236.069938,39.9810907 L234.473938,36.6090907 C235.489938,36.2810907 235.997938,35.4770907 235.997938,34.1970907 C235.997938,33.3330907 235.775938,32.6970907 235.331938,32.2890907 C234.887938,31.8810907 234.225938,31.6770907 233.345938,31.6770907 L233.345938,31.6770907 L230.273938,31.6770907 L230.273938,39.9810907 L231.197938,39.9810907 Z M233.357938,35.9850907 L231.197938,35.9850907 L231.197938,32.4930907 L233.345938,32.4930907 C234.481938,32.4930907 235.049938,33.0750907 235.049938,34.2390907 C235.049938,35.4030907 234.485938,35.9850907 233.357938,35.9850907 L233.357938,35.9850907 Z M242.717938,39.9810907 L242.717938,39.1650907 L238.589938,39.1650907 L238.589938,36.1650907 L241.997938,36.1650907 L241.997938,35.3610907 L238.589938,35.3610907 L238.589938,32.4930907 L242.717938,32.4930907 L242.717938,31.6770907 L237.665938,31.6770907 L237.665938,39.9810907 L242.717938,39.9810907 Z M246.557938,40.0890907 C248.325938,40.0890907 249.209938,39.2370907 249.209938,37.5330907 C249.209938,36.8450907 249.033938,36.3510907 248.681938,36.0510907 C248.329938,35.7510907 247.731938,35.5070907 246.887938,35.3190907 C246.043938,35.1310907 245.483938,34.9430907 245.207938,34.7550907 C244.931938,34.5670907 244.793938,34.2210907 244.793938,33.7170907 C244.793938,32.8130907 245.393938,32.3610907 246.593938,32.3610907 C247.057938,32.3610907 247.845938,32.4290907 248.957938,32.5650907 L248.957938,32.5650907 L249.041938,31.7850907 L248.633938,31.7250907 C247.817938,31.6050907 247.117938,31.5450907 246.533938,31.5450907 C244.749938,31.5450907 243.857938,32.2890907 243.857938,33.7770907 C243.857938,34.5210907 244.053938,35.0510907 244.445938,35.3670907 C244.837938,35.6830907 245.501938,35.9410907 246.437938,36.1410907 C247.149938,36.2770907 247.635938,36.4430907 247.895938,36.6390907 C248.155938,36.8350907 248.285938,37.1570907 248.285938,37.6050907 C248.285938,38.7170907 247.693938,39.2730907 246.509938,39.2730907 C245.941938,39.2730907 245.113938,39.2010907 244.025938,39.0570907 L244.025938,39.0570907 L243.929938,39.8250907 L244.361938,39.8850907 C245.241938,40.0210907 245.973938,40.0890907 246.557938,40.0890907 Z M251.729938,39.9810907 L251.729938,31.6770907 L250.805938,31.6770907 L250.805938,39.9810907 L251.729938,39.9810907 Z M258.329938,39.9810907 L258.329938,39.1530907 L254.681938,39.1530907 L254.681938,31.6770907 L253.757938,31.6770907 L253.757938,39.9810907 L258.329938,39.9810907 Z M260.429938,39.9810907 L260.429938,31.6770907 L259.505938,31.6770907 L259.505938,39.9810907 L260.429938,39.9810907 Z M267.509938,39.9810907 L267.509938,39.1650907 L263.381938,39.1650907 L263.381938,36.1650907 L266.789938,36.1650907 L266.789938,35.3610907 L263.381938,35.3610907 L263.381938,32.4930907 L267.509938,32.4930907 L267.509938,31.6770907 L262.457938,31.6770907 L262.457938,39.9810907 L267.509938,39.9810907 Z M270.017938,39.9810907 L270.017938,32.4930907 L270.245938,32.4930907 L273.473938,39.9810907 L275.165938,39.9810907 L275.165938,31.6770907 L274.253938,31.6770907 L274.253938,39.1650907 L274.001938,39.1650907 L270.821938,31.6770907 L269.093938,31.6770907 L269.093938,39.9810907 L270.017938,39.9810907 Z M282.101938,39.9930907 L282.101938,39.1650907 L277.757938,39.1650907 L277.757938,38.9250907 L282.101938,32.7570907 L282.101938,31.6770907 L276.701938,31.6770907 L276.701938,32.4930907 L281.033938,32.4930907 L281.033938,32.7570907 L276.701938,38.9250907 L276.701938,39.9930907 L282.101938,39.9930907 Z M283.817938,39.9810907 L284.417938,37.8450907 L287.969938,37.8450907 L288.569938,39.9810907 L289.481938,39.9810907 L287.201938,31.6770907 L285.185938,31.6770907 L282.905938,39.9810907 L283.817938,39.9810907 Z M287.765938,37.0170907 L284.621938,37.0170907 L285.881938,32.4690907 L286.505938,32.4690907 L287.765938,37.0170907 Z" id="PIANONAZIONALEDIRIPRESAERESILIENZA" fill="#000000" fill-rule="nonzero"></path>
        </g>
        <g id="Group-22" transform="translate(0.000000, -0.000000)">
            <path d="M47.9184691,2.6309323 C43.3695153,1.75395487 38.8205616,0.876977433 34.2716079,0 C34.2716079,3.89426107 34.2716079,7.78807652 34.2716079,11.6823376 C35.4221076,11.7745806 36.5721615,11.8668237 37.7226613,11.9590667 C37.7226613,17.2258331 37.7226613,22.4925995 37.7226613,27.7598116 C41.1211153,27.4968966 44.520015,27.2339816 47.9184691,26.9710666 C47.9184691,18.8576885 47.9184691,10.7443104 47.9184691,2.6309323" id="Fill-1" fill="#D8242A"></path>
            <path d="M34.2716079,11.6823376 C31.975066,11.4978515 29.6785242,11.313811 27.3819823,11.1297705 C27.3819823,19.3398479 27.3819823,27.5494796 27.3819823,35.7595569 C26.2319284,35.9235446 25.0814286,36.0870866 23.9309289,36.2506286 C23.9309289,38.1672343 23.9309289,40.0833943 23.9309289,42 C28.5280245,41.113219 33.1255657,40.2268835 37.7226613,39.3409937 C37.7226613,35.4805997 37.7226613,31.6202056 37.7226613,27.7598116 C36.5721615,27.8484897 35.4221076,27.9376134 34.2716079,28.0262915 C34.2716079,22.5786039 34.2716079,17.1304708 34.2716079,11.6823376" id="Fill-2" fill="#E6E6E0"></path>
            <path d="M34.2716079,11.6823376 C34.2716079,17.1304708 34.2716079,22.5786039 34.2716079,28.0262915 C35.4221076,27.9376134 36.5721615,27.8484897 37.7226613,27.7598116 C37.7226613,22.4925995 37.7226613,17.2258331 37.7226613,11.9590667 C36.5721615,11.8668237 35.4221076,11.7745806 34.2716079,11.6823376" id="Fill-3" fill="#932327"></path>
            <path d="M27.3819823,11.1297705 C27.3819823,9.27154089 27.3819823,7.41331126 27.3819823,5.55508164 C22.7848868,4.95483337 18.1877913,4.3545851 13.59025,3.75389121 C13.59025,15.0775058 13.59025,26.4002292 13.59025,37.7233982 C17.0372916,37.2323264 20.4843331,36.7417004 23.9309289,36.2506286 C23.9309289,27.7847662 23.9309289,19.3189038 23.9309289,10.8530413 C25.0814286,10.9452844 26.2319284,11.0375275 27.3819823,11.1297705" id="Fill-4" fill="#198B53"></path>
            <g id="Group-8" transform="translate(0.000000, 10.853041)">
                <mask id="mask-2" fill="white">
                    <use xlink:href="#path-1"></use>
                </mask>
                <g id="Clip-6"></g>
                <path d="M27.3819823,0.276729159 C26.2319284,0.184486106 25.0814286,0.0922430531 23.9309289,0 C23.9309289,8.46586243 23.9309289,16.9317249 23.9309289,25.3975873 C25.0814286,25.2340453 26.2319284,25.0705032 27.3819823,24.9065156 C27.3819823,16.6964382 27.3819823,8.48680651 27.3819823,0.276729159" id="Fill-5" fill="#45AE59" mask="url(#mask-2)"></path>
                <path d="M3.32891587,4.00967629 C2.21051068,3.96867938 1.09165974,3.92768246 -0.0267454408,3.88623993 C-0.0267454408,2.7124805 -0.0267454408,1.53827546 -0.0267454408,0.364070408 C1.09165974,0.429576344 2.21051068,0.494636662 3.32891587,0.560142598 C3.32891587,1.71028424 3.32891587,2.85998027 3.32891587,4.00967629" id="Fill-7" fill="#198B53" mask="url(#mask-2)"></path>
            </g>
            <path d="M7.36614016,19.0038514 C6.24773498,18.9913741 5.12932979,18.9793424 4.01047885,18.9668651 C4.01047885,17.8216252 4.01047885,16.676831 4.01047885,15.5320368 C5.12932979,15.5685775 6.24773498,15.6051182 7.36614016,15.641659 C7.36614016,16.7623898 7.36614016,17.8831206 7.36614016,19.0038514" id="Fill-9" fill="#198B53"></path>
            <path d="M15.4414803,19.0925295 C14.3226293,19.0800522 13.2037784,19.0680205 12.0853732,19.0555432 C12.0853732,17.969125 12.0853732,16.8822612 12.0853732,15.795843 C13.2037784,15.8323837 14.3226293,15.8689245 15.4414803,15.9054652 C15.4414803,16.96782 15.4414803,18.0301747 15.4414803,19.0925295" id="Fill-10" fill="#198B53"></path>
            <path d="M15.4414803,10.3735557 C14.3226293,10.2946812 13.2037784,10.2162523 12.0853732,10.1373779 C12.0853732,9.05095967 12.0853732,7.96409587 12.0853732,6.87767769 C13.2037784,6.98061559 14.3226293,7.08355349 15.4414803,7.18649139 C15.4414803,8.24884617 15.4414803,9.31120094 15.4414803,10.3735557" id="Fill-11" fill="#45AE59"></path>
            <path d="M3.37616615,23.0549702 C2.25776096,23.0714581 1.13891002,23.087946 0.020504838,23.1044339 C0.020504838,21.9306745 0.020504838,20.756915 0.020504838,19.5831556 C1.13891002,19.5911768 2.25776096,19.5987523 3.37616615,19.6063278 C3.37616615,20.7560238 3.37616615,21.9052742 3.37616615,23.0549702" id="Fill-12" fill="#45AE59"></path>
            <path d="M11.4038102,26.8249037 C10.285405,26.8703568 9.16655409,26.9158099 8.0481489,26.961263 C8.0481489,25.845434 8.0481489,24.729605 8.0481489,23.613776 C9.16655409,23.5928319 10.285405,23.5718878 11.4038102,23.5504981 C11.4038102,24.6418181 11.4038102,25.7335837 11.4038102,26.8249037" id="Fill-13" fill="#198B53"></path>
            <path d="M15.4414803,30.4460006 C14.3226293,30.5199733 13.2037784,30.5943916 12.0853732,30.6683643 C12.0853732,29.5815005 12.0853732,28.4950823 12.0853732,27.4091097 C13.2037784,27.3587548 14.3226293,27.3088455 15.4414803,27.2593819 C15.4414803,28.321291 15.4414803,29.3836458 15.4414803,30.4460006" id="Fill-14" fill="#45AE59"></path>
            <path d="M7.36614016,34.9739313 C6.24773498,35.0768692 5.12932979,35.1798071 4.01047885,35.2822994 C4.01047885,34.1375052 4.01047885,32.992711 4.01047885,31.8474711 C5.12932979,31.7690422 6.24773498,31.6901677 7.36614016,31.6112932 C7.36614016,32.7324697 7.36614016,33.8527549 7.36614016,34.9739313" id="Fill-15" fill="#45AE59"></path>
            <path d="M15.3451967,34.2395518 C14.2263457,34.3424897 13.1079405,34.4458733 11.9890896,34.5483655 C11.9890896,33.4610561 11.9890896,32.3737467 11.9890896,31.2864373 C13.1079405,31.2080084 14.2263457,31.1291339 15.3451967,31.0502594 C15.3451967,32.1135054 15.3451967,33.1767514 15.3451967,34.2395518" id="Fill-16" fill="#198B53"></path>
            <path d="M29.2987389,4.36617118 C29.2987389,3.51815896 29.2987389,2.66970112 29.2987389,1.82168889 C28.4674015,1.70538244 27.6356182,1.5895216 26.8042808,1.47321514 C26.8042808,2.346182 26.8042808,3.21914887 26.8042808,4.09211573 C27.6356182,4.18346755 28.4674015,4.27481937 29.2987389,4.36617118" id="Fill-17" fill="#D8242A"></path>
            <path d="M32.2612422,7.64815227 C32.2612422,6.82910526 32.2612422,6.01005825 32.2612422,5.19101124 C31.4299048,5.10456122 30.5981216,5.01811121 29.7667841,4.93210682 C29.7667841,5.77566286 29.7667841,6.61921889 29.7667841,7.46277493 C30.5981216,7.5242703 31.4299048,7.58621129 32.2612422,7.64815227" id="Fill-18" fill="#D8242A"></path>
            <path d="M32.2612422,13.56062 C32.2612422,12.741573 32.2612422,11.922526 32.2612422,11.103479 C31.4299048,11.0762963 30.5981216,11.0491135 29.7667841,11.0219308 C29.7667841,11.8659325 29.7667841,12.7094885 29.7667841,13.5530445 C30.5981216,13.5557182 31.4299048,13.558392 32.2612422,13.56062" id="Fill-19" fill="#932327"></path>
            <path d="M33.59896,20.4761753 C33.59896,19.6704969 33.59896,18.8643728 33.59896,18.0586943 C32.7671768,18.1019193 31.9353936,18.1451443 31.1040562,18.1883694 C31.1040562,19.0190025 31.1040562,19.8496355 31.1040562,20.679823 C31.9353936,20.612089 32.7671768,20.5439093 33.59896,20.4761753" id="Fill-20" fill="#932327"></path>
            <path d="M35.2241913,5.05108699 C35.2241913,4.26100519 35.2241913,3.471369 35.2241913,2.6812872 C34.3924081,2.56587198 33.5610707,2.45001114 32.7292875,2.33459592 C32.7292875,3.14874113 32.7292875,3.96333195 32.7292875,4.77792278 C33.5610707,4.86882898 34.3924081,4.96018079 35.2241913,5.05108699" id="Fill-21" fill="#932327"></path>
            <path d="M35.2241913,16.4201547 C35.2241913,15.6305185 35.2241913,14.8404367 35.2241913,14.0508005 C34.3924081,14.0534742 33.5610707,14.0557023 32.7292875,14.058376 C32.7292875,14.8729669 32.7292875,15.6871121 32.7292875,16.5017029 C33.5610707,16.4745202 34.3924081,16.4473374 35.2241913,16.4201547" id="Fill-22" fill="#D8242A"></path>
            <path d="M35.2036865,24.9751408 C35.2036865,24.185059 35.2036865,23.3949772 35.2036865,22.6053411 C34.3719033,22.6966929 33.5401201,22.7880447 32.7083369,22.8793965 C32.7083369,23.6939873 32.7083369,24.5085782 32.7083369,25.323169 C33.5401201,25.2073081 34.3719033,25.0910017 35.2036865,24.9751408" id="Fill-23" fill="#D8242A"></path>
        </g>
    </g>
</svg>